{
	"asset":{
		"generator":"Khronos glTF Blender I/O v3.6.28",
		"version":"2.0"
	},
	"scene":1,
	"scenes":[
		{
			"name":"Scene"
		},
		{
			"extras":{
				"ats_settings":{
					"num_tiles":[
						15,
						9
					],
					"threads_error":0,
					"prev_engine":"BLENDER_RENDER",
					"prev_device":"",
					"prev_border":0,
					"prev_threads":2,
					"prev_choice":"64",
					"prev_res":[
						960,
						540
					],
					"prev_border_res":[
						0.0,
						0.0,
						1.0,
						1.0
					],
					"prev_actual_tile_size":[
						64,
						60
					],
					"first_run":0
				}
			},
			"name":"Scene.001",
			"nodes":[
				1
			]
		}
	],
	"nodes":[
		{
			"mesh":0,
			"name":"Cylinder.003",
			"rotation":[
				0,
				0.3942078948020935,
				-0.9190213084220886,
				2.434346129120968e-07
			],
			"translation":[
				0,
				-0.12470939755439758,
				0.04636356607079506
			]
		},
		{
			"children":[
				0
			],
			"mesh":1,
			"name":"dongle_target",
			"rotation":[
				0,
				-0.5707582831382751,
				0.8211181163787842,
				2.0764535690886987e-07
			]
		}
	],
	"materials":[
		{
			"doubleSided":true,
			"name":"dongle_leaf_sha",
			"pbrMetallicRoughness":{
				"baseColorFactor":[
					0.15101952850818634,
					0.28551894426345825,
					0.8000000715255737,
					1
				],
				"metallicFactor":0,
				"roughnessFactor":0.5
			}
		},
		{
			"doubleSided":true,
			"name":"flytrap_inside_sha.002",
			"pbrMetallicRoughness":{
				"baseColorFactor":[
					0.8000000715255737,
					0,
					0.1586567908525467,
					1
				],
				"metallicFactor":0,
				"roughnessFactor":0.5
			}
		},
		{
			"doubleSided":true,
			"name":"dongle_leaf_sha.001",
			"pbrMetallicRoughness":{
				"baseColorFactor":[
					0.15101952850818634,
					0.28551894426345825,
					0.8000000715255737,
					1
				],
				"metallicFactor":0,
				"roughnessFactor":0.5
			}
		}
	],
	"meshes":[
		{
			"name":"Cylinder.005",
			"primitives":[
				{
					"attributes":{
						"POSITION":0,
						"NORMAL":1,
						"TEXCOORD_0":2
					},
					"indices":3,
					"material":0
				}
			]
		},
		{
			"name":"Cylinder.010",
			"primitives":[
				{
					"attributes":{
						"POSITION":4,
						"NORMAL":5,
						"TEXCOORD_0":6
					},
					"indices":7,
					"material":1
				},
				{
					"attributes":{
						"POSITION":8,
						"NORMAL":9,
						"TEXCOORD_0":10
					},
					"indices":11,
					"material":2
				}
			]
		}
	],
	"accessors":[
		{
			"bufferView":0,
			"componentType":5126,
			"count":34,
			"max":[
				0.09829630702733994,
				-0.2834515869617462,
				0.08282802999019623
			],
			"min":[
				-0.09829630702733994,
				-0.6415146589279175,
				-0.02906971424818039
			],
			"type":"VEC3"
		},
		{
			"bufferView":1,
			"componentType":5126,
			"count":34,
			"type":"VEC3"
		},
		{
			"bufferView":2,
			"componentType":5126,
			"count":34,
			"type":"VEC2"
		},
		{
			"bufferView":3,
			"componentType":5123,
			"count":84,
			"type":"SCALAR"
		},
		{
			"bufferView":4,
			"componentType":5126,
			"count":190,
			"max":[
				0.28927165269851685,
				0.11561651527881622,
				0.2823345363140106
			],
			"min":[
				-0.28979793190956116,
				0.05859578773379326,
				-0.1003694236278534
			],
			"type":"VEC3"
		},
		{
			"bufferView":5,
			"componentType":5126,
			"count":190,
			"type":"VEC3"
		},
		{
			"bufferView":6,
			"componentType":5126,
			"count":190,
			"type":"VEC2"
		},
		{
			"bufferView":7,
			"componentType":5123,
			"count":294,
			"type":"SCALAR"
		},
		{
			"bufferView":8,
			"componentType":5126,
			"count":156,
			"max":[
				0.2895347476005554,
				0.10321643203496933,
				0.2803788185119629
			],
			"min":[
				-0.2895348072052002,
				-0.1285238116979599,
				-0.033553123474121094
			],
			"type":"VEC3"
		},
		{
			"bufferView":9,
			"componentType":5126,
			"count":156,
			"type":"VEC3"
		},
		{
			"bufferView":10,
			"componentType":5126,
			"count":156,
			"type":"VEC2"
		},
		{
			"bufferView":11,
			"componentType":5123,
			"count":504,
			"type":"SCALAR"
		}
	],
	"bufferViews":[
		{
			"buffer":0,
			"byteLength":408,
			"byteOffset":0,
			"target":34962
		},
		{
			"buffer":0,
			"byteLength":408,
			"byteOffset":408,
			"target":34962
		},
		{
			"buffer":0,
			"byteLength":272,
			"byteOffset":816,
			"target":34962
		},
		{
			"buffer":0,
			"byteLength":168,
			"byteOffset":1088,
			"target":34963
		},
		{
			"buffer":0,
			"byteLength":2280,
			"byteOffset":1256,
			"target":34962
		},
		{
			"buffer":0,
			"byteLength":2280,
			"byteOffset":3536,
			"target":34962
		},
		{
			"buffer":0,
			"byteLength":1520,
			"byteOffset":5816,
			"target":34962
		},
		{
			"buffer":0,
			"byteLength":588,
			"byteOffset":7336,
			"target":34963
		},
		{
			"buffer":0,
			"byteLength":1872,
			"byteOffset":7924,
			"target":34962
		},
		{
			"buffer":0,
			"byteLength":1872,
			"byteOffset":9796,
			"target":34962
		},
		{
			"buffer":0,
			"byteLength":1248,
			"byteOffset":11668,
			"target":34962
		},
		{
			"buffer":0,
			"byteLength":1008,
			"byteOffset":12916,
			"target":34963
		}
	],
	"buffers":[
		{
			"byteLength":13924,
			"uri":"data:application/octet-stream;base64,"
		}
	]
}
