{
	"asset":{
		"generator":"Khronos glTF Blender I/O v3.6.28",
		"version":"2.0"
	},
	"scene":1,
	"scenes":[
		{
			"name":"Scene"
		},
		{
			"extras":{
				"ats_settings":{
					"num_tiles":[
						15,
						9
					],
					"threads_error":0,
					"prev_engine":"BLENDER_RENDER",
					"prev_device":"",
					"prev_border":0,
					"prev_threads":2,
					"prev_choice":"64",
					"prev_res":[
						960,
						540
					],
					"prev_border_res":[
						0.0,
						0.0,
						1.0,
						1.0
					],
					"prev_actual_tile_size":[
						64,
						60
					],
					"first_run":0
				}
			},
			"name":"Scene.001",
			"nodes":[
				2
			]
		}
	],
	"nodes":[
		{
			"mesh":0,
			"name":"Cube.001"
		},
		{
			"mesh":1,
			"name":"Cube.002"
		},
		{
			"children":[
				0,
				1
			],
			"mesh":2,
			"name":"fruit_target"
		}
	],
	"materials":[
		{
			"doubleSided":true,
			"name":"toaster_handle_sha",
			"pbrMetallicRoughness":{
				"baseColorFactor":[
					0.5508288145065308,
					0,
					0.0015438898699358106,
					1
				],
				"metallicFactor":0,
				"roughnessFactor":0.5
			}
		},
		{
			"doubleSided":true,
			"name":"toaster_handle_sha",
			"pbrMetallicRoughness":{
				"baseColorFactor":[
					0.5508288145065308,
					0,
					0.0015438898699358106,
					1
				],
				"metallicFactor":0,
				"roughnessFactor":0.5
			}
		},
		{
			"doubleSided":true,
			"name":"toaster_sha",
			"pbrMetallicRoughness":{
				"baseColorFactor":[
					0.8000000715255737,
					0.21050918102264404,
					0.267549604177475,
					1
				],
				"metallicFactor":0,
				"roughnessFactor":0.5
			}
		}
	],
	"meshes":[
		{
			"name":"Cube.008",
			"primitives":[
				{
					"attributes":{
						"POSITION":0,
						"NORMAL":1,
						"TEXCOORD_0":2
					},
					"indices":3,
					"material":0
				}
			]
		},
		{
			"name":"Cube.010",
			"primitives":[
				{
					"attributes":{
						"POSITION":4,
						"NORMAL":5,
						"TEXCOORD_0":6
					},
					"indices":7,
					"material":1
				}
			]
		},
		{
			"name":"Cube.006",
			"primitives":[
				{
					"attributes":{
						"POSITION":8,
						"NORMAL":9,
						"TEXCOORD_0":10
					},
					"indices":11,
					"material":2
				}
			]
		}
	],
	"accessors":[
		{
			"bufferView":0,
			"componentType":5126,
			"count":96,
			"max":[
				0.2533038854598999,
				-0.06740416586399078,
				0.028194651007652283
			],
			"min":[
				0.22412370145320892,
				-0.09386707842350006,
				-0.028194651007652283
			],
			"type":"VEC3"
		},
		{
			"bufferView":1,
			"componentType":5126,
			"count":96,
			"type":"VEC3"
		},
		{
			"bufferView":2,
			"componentType":5126,
			"count":96,
			"type":"VEC2"
		},
		{
			"bufferView":3,
			"componentType":5123,
			"count":132,
			"type":"SCALAR"
		},
		{
			"bufferView":4,
			"componentType":5126,
			"count":84,
			"max":[
				0.23141911625862122,
				-0.02169739454984665,
				0.01443087961524725
			],
			"min":[
				0.20255735516548157,
				-0.2442881464958191,
				-0.01443087961524725
			],
			"type":"VEC3"
		},
		{
			"bufferView":5,
			"componentType":5126,
			"count":84,
			"type":"VEC3"
		},
		{
			"bufferView":6,
			"componentType":5126,
			"count":84,
			"type":"VEC2"
		},
		{
			"bufferView":7,
			"componentType":5123,
			"count":204,
			"type":"SCALAR"
		},
		{
			"bufferView":8,
			"componentType":5126,
			"count":2315,
			"max":[
				0.22787299752235413,
				0.0016747269546613097,
				0.12136248499155045
			],
			"min":[
				-0.2279362827539444,
				-0.2672591805458069,
				-0.12131229788064957
			],
			"type":"VEC3"
		},
		{
			"bufferView":9,
			"componentType":5126,
			"count":2315,
			"type":"VEC3"
		},
		{
			"bufferView":10,
			"componentType":5126,
			"count":2315,
			"type":"VEC2"
		},
		{
			"bufferView":11,
			"componentType":5123,
			"count":12096,
			"type":"SCALAR"
		}
	],
	"bufferViews":[
		{
			"buffer":0,
			"byteLength":1152,
			"byteOffset":0,
			"target":34962
		},
		{
			"buffer":0,
			"byteLength":1152,
			"byteOffset":1152,
			"target":34962
		},
		{
			"buffer":0,
			"byteLength":768,
			"byteOffset":2304,
			"target":34962
		},
		{
			"buffer":0,
			"byteLength":264,
			"byteOffset":3072,
			"target":34963
		},
		{
			"buffer":0,
			"byteLength":1008,
			"byteOffset":3336,
			"target":34962
		},
		{
			"buffer":0,
			"byteLength":1008,
			"byteOffset":4344,
			"target":34962
		},
		{
			"buffer":0,
			"byteLength":672,
			"byteOffset":5352,
			"target":34962
		},
		{
			"buffer":0,
			"byteLength":408,
			"byteOffset":6024,
			"target":34963
		},
		{
			"buffer":0,
			"byteLength":27780,
			"byteOffset":6432,
			"target":34962
		},
		{
			"buffer":0,
			"byteLength":27780,
			"byteOffset":34212,
			"target":34962
		},
		{
			"buffer":0,
			"byteLength":18520,
			"byteOffset":61992,
			"target":34962
		},
		{
			"buffer":0,
			"byteLength":24192,
			"byteOffset":80512,
			"target":34963
		}
	],
	"buffers":[
		{
			"byteLength":104704,
			"uri":"data:application/octet-stream;base64,"
		}
	]
}
