{
	"asset":{
		"generator":"Khronos glTF Blender I/O v3.6.28",
		"version":"2.0"
	},
	"scene":1,
	"scenes":[
		{
			"name":"Scene"
		},
		{
			"extras":{
				"ats_settings":{
					"num_tiles":[
						15,
						9
					],
					"threads_error":0,
					"prev_engine":"BLENDER_RENDER",
					"prev_device":"",
					"prev_border":0,
					"prev_threads":2,
					"prev_choice":"64",
					"prev_res":[
						960,
						540
					],
					"prev_border_res":[
						0.0,
						0.0,
						1.0,
						1.0
					],
					"prev_actual_tile_size":[
						64,
						60
					],
					"first_run":0
				}
			},
			"name":"Scene.001",
			"nodes":[
				0
			]
		}
	],
	"nodes":[
		{
			"mesh":0,
			"name":"fruit_target"
		}
	],
	"materials":[
		{
			"doubleSided":true,
			"name":"toaster_sha",
			"pbrMetallicRoughness":{
				"baseColorFactor":[
					0.8000000715255737,
					0.21050918102264404,
					0.267549604177475,
					1
				],
				"metallicFactor":0,
				"roughnessFactor":0.5
			}
		},
		{
			"doubleSided":true,
			"name":"toaster_handle_sha",
			"pbrMetallicRoughness":{
				"baseColorFactor":[
					0.5508288145065308,
					0,
					0.0015438898699358106,
					1
				],
				"metallicFactor":0,
				"roughnessFactor":0.5
			}
		}
	],
	"meshes":[
		{
			"name":"Cube.006",
			"primitives":[
				{
					"attributes":{
						"POSITION":0,
						"NORMAL":1,
						"TEXCOORD_0":2
					},
					"indices":3,
					"material":0
				},
				{
					"attributes":{
						"POSITION":4,
						"NORMAL":5,
						"TEXCOORD_0":6
					},
					"indices":7,
					"material":1
				}
			]
		}
	],
	"accessors":[
		{
			"bufferView":0,
			"componentType":5126,
			"count":583,
			"max":[
				0.22787299752235413,
				0.0016747269546613097,
				0.12136247754096985
			],
			"min":[
				-0.227936252951622,
				-0.2672591805458069,
				-0.12131229788064957
			],
			"type":"VEC3"
		},
		{
			"bufferView":1,
			"componentType":5126,
			"count":583,
			"type":"VEC3"
		},
		{
			"bufferView":2,
			"componentType":5126,
			"count":583,
			"type":"VEC2"
		},
		{
			"bufferView":3,
			"componentType":5123,
			"count":3024,
			"type":"SCALAR"
		},
		{
			"bufferView":4,
			"componentType":5126,
			"count":180,
			"max":[
				0.2533038854598999,
				-0.02169739454984665,
				0.028194651007652283
			],
			"min":[
				0.20255735516548157,
				-0.2442881464958191,
				-0.028194651007652283
			],
			"type":"VEC3"
		},
		{
			"bufferView":5,
			"componentType":5126,
			"count":180,
			"type":"VEC3"
		},
		{
			"bufferView":6,
			"componentType":5126,
			"count":180,
			"type":"VEC2"
		},
		{
			"bufferView":7,
			"componentType":5123,
			"count":336,
			"type":"SCALAR"
		}
	],
	"bufferViews":[
		{
			"buffer":0,
			"byteLength":6996,
			"byteOffset":0,
			"target":34962
		},
		{
			"buffer":0,
			"byteLength":6996,
			"byteOffset":6996,
			"target":34962
		},
		{
			"buffer":0,
			"byteLength":4664,
			"byteOffset":13992,
			"target":34962
		},
		{
			"buffer":0,
			"byteLength":6048,
			"byteOffset":18656,
			"target":34963
		},
		{
			"buffer":0,
			"byteLength":2160,
			"byteOffset":24704,
			"target":34962
		},
		{
			"buffer":0,
			"byteLength":2160,
			"byteOffset":26864,
			"target":34962
		},
		{
			"buffer":0,
			"byteLength":1440,
			"byteOffset":29024,
			"target":34962
		},
		{
			"buffer":0,
			"byteLength":672,
			"byteOffset":30464,
			"target":34963
		}
	],
	"buffers":[
		{
			"byteLength":31136,
			"uri":"data:application/octet-stream;base64,"
		}
	]
}
