{
	"asset":{
		"generator":"Khronos glTF Blender I/O v3.6.28",
		"version":"2.0"
	},
	"scene":1,
	"scenes":[
		{
			"name":"Scene"
		},
		{
			"extras":{
				"ats_settings":{
					"num_tiles":[
						15,
						9
					],
					"threads_error":0,
					"prev_engine":"BLENDER_RENDER",
					"prev_device":"",
					"prev_border":0,
					"prev_threads":2,
					"prev_choice":"64",
					"prev_res":[
						960,
						540
					],
					"prev_border_res":[
						0.0,
						0.0,
						1.0,
						1.0
					],
					"prev_actual_tile_size":[
						64,
						60
					],
					"first_run":0
				}
			},
			"name":"Scene.001",
			"nodes":[
				3
			]
		}
	],
	"nodes":[
		{
			"mesh":0,
			"name":"BezierCurve.001",
			"rotation":[
				0,
				-0.8431677222251892,
				0,
				0.5376506447792053
			],
			"scale":[
				0.8655577898025513,
				0.8655577898025513,
				0.8655577898025513
			],
			"translation":[
				0,
				-0.22784626483917236,
				0
			]
		},
		{
			"mesh":1,
			"name":"BezierCurve.002",
			"rotation":[
				0,
				-0.327045202255249,
				0,
				0.9450086951255798
			],
			"scale":[
				0.8655577301979065,
				0.8655577898025513,
				0.8655577301979065
			],
			"translation":[
				0,
				-0.22784626483917236,
				0
			]
		},
		{
			"mesh":2,
			"name":"Cylinder.002",
			"scale":[
				0.3397008180618286,
				0.022268669679760933,
				0.3397008180618286
			],
			"translation":[
				0,
				-0.2600390315055847,
				0
			]
		},
		{
			"children":[
				0,
				1,
				2
			],
			"mesh":3,
			"name":"grip_target"
		}
	],
	"materials":[
		{
			"doubleSided":true,
			"name":"Material.012",
			"pbrMetallicRoughness":{
				"baseColorFactor":[
					0.5315454006195068,
					0.293530136346817,
					0.36306923627853394,
					1
				],
				"metallicFactor":0,
				"roughnessFactor":0.5
			}
		}
	],
	"meshes":[
		{
			"name":"BezierCurve.001",
			"primitives":[
				{
					"attributes":{
						"POSITION":0,
						"NORMAL":1,
						"TEXCOORD_0":2
					},
					"indices":3,
					"material":0
				}
			]
		},
		{
			"name":"BezierCurve.002",
			"primitives":[
				{
					"attributes":{
						"POSITION":4,
						"NORMAL":5,
						"TEXCOORD_0":6
					},
					"indices":3,
					"material":0
				}
			]
		},
		{
			"name":"Cylinder.011",
			"primitives":[
				{
					"attributes":{
						"POSITION":7,
						"NORMAL":8,
						"TEXCOORD_0":9
					},
					"indices":10
				}
			]
		},
		{
			"name":"BezierCurve",
			"primitives":[
				{
					"attributes":{
						"POSITION":11,
						"NORMAL":12,
						"TEXCOORD_0":13
					},
					"indices":3,
					"material":0
				}
			]
		}
	],
	"accessors":[
		{
			"bufferView":0,
			"componentType":5126,
			"count":1519,
			"max":[
				0.27062898874282837,
				0.21470828354358673,
				0.2640068233013153
			],
			"min":[
				-0.2741003930568695,
				-0.012127592228353024,
				-0.2689894437789917
			],
			"type":"VEC3"
		},
		{
			"bufferView":1,
			"componentType":5126,
			"count":1519,
			"type":"VEC3"
		},
		{
			"bufferView":2,
			"componentType":5126,
			"count":1519,
			"type":"VEC2"
		},
		{
			"bufferView":3,
			"componentType":5123,
			"count":7776,
			"type":"SCALAR"
		},
		{
			"bufferView":4,
			"componentType":5126,
			"count":1519,
			"max":[
				0.27062898874282837,
				0.21470828354358673,
				0.2640068233013153
			],
			"min":[
				-0.2741003930568695,
				-0.012127592228353024,
				-0.2689894437789917
			],
			"type":"VEC3"
		},
		{
			"bufferView":5,
			"componentType":5126,
			"count":1519,
			"type":"VEC3"
		},
		{
			"bufferView":6,
			"componentType":5126,
			"count":1519,
			"type":"VEC2"
		},
		{
			"bufferView":7,
			"componentType":5126,
			"count":243,
			"max":[
				0.9461305141448975,
				0.5978918671607971,
				0.9501360654830933
			],
			"min":[
				-0.9461304545402527,
				-0.9343435168266296,
				-0.9501838684082031
			],
			"type":"VEC3"
		},
		{
			"bufferView":8,
			"componentType":5126,
			"count":243,
			"type":"VEC3"
		},
		{
			"bufferView":9,
			"componentType":5126,
			"count":243,
			"type":"VEC2"
		},
		{
			"bufferView":10,
			"componentType":5123,
			"count":1020,
			"type":"SCALAR"
		},
		{
			"bufferView":11,
			"componentType":5126,
			"count":1519,
			"max":[
				0.27062898874282837,
				-0.05622757971286774,
				0.2640068233013153
			],
			"min":[
				-0.2741003930568695,
				-0.28306344151496887,
				-0.2689894437789917
			],
			"type":"VEC3"
		},
		{
			"bufferView":12,
			"componentType":5126,
			"count":1519,
			"type":"VEC3"
		},
		{
			"bufferView":13,
			"componentType":5126,
			"count":1519,
			"type":"VEC2"
		}
	],
	"bufferViews":[
		{
			"buffer":0,
			"byteLength":18228,
			"byteOffset":0,
			"target":34962
		},
		{
			"buffer":0,
			"byteLength":18228,
			"byteOffset":18228,
			"target":34962
		},
		{
			"buffer":0,
			"byteLength":12152,
			"byteOffset":36456,
			"target":34962
		},
		{
			"buffer":0,
			"byteLength":15552,
			"byteOffset":48608,
			"target":34963
		},
		{
			"buffer":0,
			"byteLength":18228,
			"byteOffset":64160,
			"target":34962
		},
		{
			"buffer":0,
			"byteLength":18228,
			"byteOffset":82388,
			"target":34962
		},
		{
			"buffer":0,
			"byteLength":12152,
			"byteOffset":100616,
			"target":34962
		},
		{
			"buffer":0,
			"byteLength":2916,
			"byteOffset":112768,
			"target":34962
		},
		{
			"buffer":0,
			"byteLength":2916,
			"byteOffset":115684,
			"target":34962
		},
		{
			"buffer":0,
			"byteLength":1944,
			"byteOffset":118600,
			"target":34962
		},
		{
			"buffer":0,
			"byteLength":2040,
			"byteOffset":120544,
			"target":34963
		},
		{
			"buffer":0,
			"byteLength":18228,
			"byteOffset":122584,
			"target":34962
		},
		{
			"buffer":0,
			"byteLength":18228,
			"byteOffset":140812,
			"target":34962
		},
		{
			"buffer":0,
			"byteLength":12152,
			"byteOffset":159040,
			"target":34962
		}
	],
	"buffers":[
		{
			"byteLength":171192,
			"uri":"data:application/octet-stream;base64,"
		}
	]
}
