{
	"asset":{
		"generator":"Khronos glTF Blender I/O v3.6.28",
		"version":"2.0"
	},
	"scene":1,
	"scenes":[
		{
			"name":"Scene"
		},
		{
			"extras":{
				"ats_settings":{
					"num_tiles":[
						15,
						9
					],
					"threads_error":0,
					"prev_engine":"BLENDER_RENDER",
					"prev_device":"",
					"prev_border":0,
					"prev_threads":2,
					"prev_choice":"64",
					"prev_res":[
						960,
						540
					],
					"prev_border_res":[
						0.0,
						0.0,
						1.0,
						1.0
					],
					"prev_actual_tile_size":[
						64,
						60
					],
					"first_run":0
				}
			},
			"name":"Scene.001",
			"nodes":[
				18
			]
		}
	],
	"nodes":[
		{
			"mesh":0,
			"name":"Plane.029"
		},
		{
			"mesh":1,
			"name":"Plane.030"
		},
		{
			"mesh":2,
			"name":"Plane.031"
		},
		{
			"mesh":3,
			"name":"Plane.032"
		},
		{
			"mesh":4,
			"name":"Plane.033"
		},
		{
			"mesh":5,
			"name":"Plane.034"
		},
		{
			"mesh":6,
			"name":"Plane.036"
		},
		{
			"mesh":7,
			"name":"Plane.037"
		},
		{
			"mesh":8,
			"name":"Plane.038"
		},
		{
			"mesh":9,
			"name":"Plane.039"
		},
		{
			"mesh":10,
			"name":"Plane.041"
		},
		{
			"mesh":11,
			"name":"Plane.042"
		},
		{
			"mesh":12,
			"name":"Plane.043"
		},
		{
			"mesh":13,
			"name":"Plane.044"
		},
		{
			"mesh":14,
			"name":"Plane.045"
		},
		{
			"mesh":15,
			"name":"Plane.048"
		},
		{
			"mesh":16,
			"name":"Plane.049"
		},
		{
			"mesh":17,
			"name":"Plane.050"
		},
		{
			"children":[
				0,
				1,
				2,
				3,
				4,
				5,
				6,
				7,
				8,
				9,
				10,
				11,
				12,
				13,
				14,
				15,
				16,
				17
			],
			"mesh":18,
			"name":"liquid_target"
		}
	],
	"materials":[
		{
			"doubleSided":true,
			"name":"shark_tooth_sha",
			"pbrMetallicRoughness":{
				"metallicFactor":0,
				"roughnessFactor":0
			}
		},
		{
			"doubleSided":true,
			"name":"sharkbod_sha",
			"pbrMetallicRoughness":{
				"baseColorFactor":[
					0.3616483807563782,
					0.4464421272277832,
					0.6822639107704163,
					1
				],
				"metallicFactor":0,
				"roughnessFactor":0.5
			}
		},
		{
			"doubleSided":true,
			"name":"shark_mouth_sha",
			"pbrMetallicRoughness":{
				"baseColorFactor":[
					0.8000000715255737,
					0.11212022602558136,
					0.48349300026893616,
					1
				],
				"metallicFactor":0,
				"roughnessFactor":0.5
			}
		}
	],
	"meshes":[
		{
			"name":"Plane.039",
			"primitives":[
				{
					"attributes":{
						"POSITION":0,
						"NORMAL":1,
						"TEXCOORD_0":2
					},
					"indices":3,
					"material":0
				}
			]
		},
		{
			"name":"Plane.041",
			"primitives":[
				{
					"attributes":{
						"POSITION":4,
						"NORMAL":5,
						"TEXCOORD_0":6
					},
					"indices":3,
					"material":0
				}
			]
		},
		{
			"name":"Plane.042",
			"primitives":[
				{
					"attributes":{
						"POSITION":7,
						"NORMAL":8,
						"TEXCOORD_0":9
					},
					"indices":3,
					"material":0
				}
			]
		},
		{
			"name":"Plane.043",
			"primitives":[
				{
					"attributes":{
						"POSITION":10,
						"NORMAL":11,
						"TEXCOORD_0":12
					},
					"indices":3,
					"material":0
				}
			]
		},
		{
			"name":"Plane.044",
			"primitives":[
				{
					"attributes":{
						"POSITION":13,
						"NORMAL":14,
						"TEXCOORD_0":15
					},
					"indices":3,
					"material":0
				}
			]
		},
		{
			"name":"Plane.046",
			"primitives":[
				{
					"attributes":{
						"POSITION":16,
						"NORMAL":17,
						"TEXCOORD_0":18
					},
					"indices":3,
					"material":0
				}
			]
		},
		{
			"name":"Plane.048",
			"primitives":[
				{
					"attributes":{
						"POSITION":19,
						"NORMAL":20,
						"TEXCOORD_0":21
					},
					"indices":3,
					"material":0
				}
			]
		},
		{
			"name":"Plane.049",
			"primitives":[
				{
					"attributes":{
						"POSITION":22,
						"NORMAL":23,
						"TEXCOORD_0":24
					},
					"indices":3,
					"material":0
				}
			]
		},
		{
			"name":"Plane.050",
			"primitives":[
				{
					"attributes":{
						"POSITION":25,
						"NORMAL":26,
						"TEXCOORD_0":27
					},
					"indices":3,
					"material":0
				}
			]
		},
		{
			"name":"Plane.051",
			"primitives":[
				{
					"attributes":{
						"POSITION":28,
						"NORMAL":29,
						"TEXCOORD_0":30
					},
					"indices":3,
					"material":0
				}
			]
		},
		{
			"name":"Plane.053",
			"primitives":[
				{
					"attributes":{
						"POSITION":31,
						"NORMAL":32,
						"TEXCOORD_0":33
					},
					"indices":3,
					"material":0
				}
			]
		},
		{
			"name":"Plane.054",
			"primitives":[
				{
					"attributes":{
						"POSITION":34,
						"NORMAL":35,
						"TEXCOORD_0":36
					},
					"indices":3,
					"material":0
				}
			]
		},
		{
			"name":"Plane.055",
			"primitives":[
				{
					"attributes":{
						"POSITION":37,
						"NORMAL":38,
						"TEXCOORD_0":39
					},
					"indices":3,
					"material":0
				}
			]
		},
		{
			"name":"Plane.056",
			"primitives":[
				{
					"attributes":{
						"POSITION":40,
						"NORMAL":41,
						"TEXCOORD_0":42
					},
					"indices":3,
					"material":0
				}
			]
		},
		{
			"name":"Plane.057",
			"primitives":[
				{
					"attributes":{
						"POSITION":43,
						"NORMAL":44,
						"TEXCOORD_0":45
					},
					"indices":3,
					"material":0
				}
			]
		},
		{
			"name":"Plane.060",
			"primitives":[
				{
					"attributes":{
						"POSITION":46,
						"NORMAL":47,
						"TEXCOORD_0":48
					},
					"indices":3,
					"material":0
				}
			]
		},
		{
			"name":"Plane.061",
			"primitives":[
				{
					"attributes":{
						"POSITION":49,
						"NORMAL":50,
						"TEXCOORD_0":51
					},
					"indices":3,
					"material":0
				}
			]
		},
		{
			"name":"Plane.062",
			"primitives":[
				{
					"attributes":{
						"POSITION":52,
						"NORMAL":53,
						"TEXCOORD_0":54
					},
					"indices":3,
					"material":0
				}
			]
		},
		{
			"name":"Cylinder.004",
			"primitives":[
				{
					"attributes":{
						"POSITION":55,
						"NORMAL":56,
						"TEXCOORD_0":57
					},
					"indices":58,
					"material":1
				},
				{
					"attributes":{
						"POSITION":59,
						"NORMAL":60,
						"TEXCOORD_0":61
					},
					"indices":62,
					"material":2
				}
			]
		}
	],
	"accessors":[
		{
			"bufferView":0,
			"componentType":5126,
			"count":3,
			"max":[
				-0.005169689655303955,
				0.11510951071977615,
				-0.17191214859485626
			],
			"min":[
				-0.04752998799085617,
				0.07184156775474548,
				-0.18330711126327515
			],
			"type":"VEC3"
		},
		{
			"bufferView":1,
			"componentType":5126,
			"count":3,
			"type":"VEC3"
		},
		{
			"bufferView":2,
			"componentType":5126,
			"count":3,
			"type":"VEC2"
		},
		{
			"bufferView":3,
			"componentType":5123,
			"count":3,
			"type":"SCALAR"
		},
		{
			"bufferView":4,
			"componentType":5126,
			"count":3,
			"max":[
				0.03439544141292572,
				0.11267086118459702,
				-0.17191216349601746
			],
			"min":[
				-0.008203352801501751,
				0.0706515982747078,
				-0.18330712616443634
			],
			"type":"VEC3"
		},
		{
			"bufferView":5,
			"componentType":5126,
			"count":3,
			"type":"VEC3"
		},
		{
			"bufferView":6,
			"componentType":5126,
			"count":3,
			"type":"VEC2"
		},
		{
			"bufferView":7,
			"componentType":5126,
			"count":3,
			"max":[
				0.07307372242212296,
				0.11319137364625931,
				-0.17191214859485626
			],
			"min":[
				0.03227677941322327,
				0.06766717880964279,
				-0.18330711126327515
			],
			"type":"VEC3"
		},
		{
			"bufferView":8,
			"componentType":5126,
			"count":3,
			"type":"VEC3"
		},
		{
			"bufferView":9,
			"componentType":5126,
			"count":3,
			"type":"VEC2"
		},
		{
			"bufferView":10,
			"componentType":5126,
			"count":3,
			"max":[
				0.10915205627679825,
				0.10725492984056473,
				-0.17191214859485626
			],
			"min":[
				0.06752843409776688,
				0.06154954433441162,
				-0.18330711126327515
			],
			"type":"VEC3"
		},
		{
			"bufferView":11,
			"componentType":5126,
			"count":3,
			"type":"VEC3"
		},
		{
			"bufferView":12,
			"componentType":5126,
			"count":3,
			"type":"VEC2"
		},
		{
			"bufferView":13,
			"componentType":5126,
			"count":3,
			"max":[
				0.14113205671310425,
				0.086652971804142,
				-0.17191213369369507
			],
			"min":[
				0.10292623192071915,
				0.04035794734954834,
				-0.18330712616443634
			],
			"type":"VEC3"
		},
		{
			"bufferView":14,
			"componentType":5126,
			"count":3,
			"type":"VEC3"
		},
		{
			"bufferView":15,
			"componentType":5126,
			"count":3,
			"type":"VEC2"
		},
		{
			"bufferView":16,
			"componentType":5126,
			"count":3,
			"max":[
				0.1696009337902069,
				0.06531516462564468,
				-0.17191213369369507
			],
			"min":[
				0.12943685054779053,
				0.019441798329353333,
				-0.18330711126327515
			],
			"type":"VEC3"
		},
		{
			"bufferView":17,
			"componentType":5126,
			"count":3,
			"type":"VEC3"
		},
		{
			"bufferView":18,
			"componentType":5126,
			"count":3,
			"type":"VEC2"
		},
		{
			"bufferView":19,
			"componentType":5126,
			"count":3,
			"max":[
				-0.043405454605817795,
				0.11432339251041412,
				-0.17191213369369507
			],
			"min":[
				-0.08197765797376633,
				0.06807085126638412,
				-0.18330711126327515
			],
			"type":"VEC3"
		},
		{
			"bufferView":20,
			"componentType":5126,
			"count":3,
			"type":"VEC3"
		},
		{
			"bufferView":21,
			"componentType":5126,
			"count":3,
			"type":"VEC2"
		},
		{
			"bufferView":22,
			"componentType":5126,
			"count":3,
			"max":[
				-0.07543916255235672,
				0.10165109485387802,
				-0.17191214859485626
			],
			"min":[
				-0.11635074019432068,
				0.056219037622213364,
				-0.18330711126327515
			],
			"type":"VEC3"
		},
		{
			"bufferView":23,
			"componentType":5126,
			"count":3,
			"type":"VEC3"
		},
		{
			"bufferView":24,
			"componentType":5126,
			"count":3,
			"type":"VEC2"
		},
		{
			"bufferView":25,
			"componentType":5126,
			"count":3,
			"max":[
				-0.1054457426071167,
				0.08509573340415955,
				-0.17191214859485626
			],
			"min":[
				-0.14635731279850006,
				0.03966367617249489,
				-0.18330711126327515
			],
			"type":"VEC3"
		},
		{
			"bufferView":26,
			"componentType":5126,
			"count":3,
			"type":"VEC3"
		},
		{
			"bufferView":27,
			"componentType":5126,
			"count":3,
			"type":"VEC2"
		},
		{
			"bufferView":28,
			"componentType":5126,
			"count":3,
			"max":[
				-0.12852711975574493,
				0.06053333356976509,
				-0.17191214859485626
			],
			"min":[
				-0.1692350208759308,
				0.014961689710617065,
				-0.18330714106559753
			],
			"type":"VEC3"
		},
		{
			"bufferView":29,
			"componentType":5126,
			"count":3,
			"type":"VEC3"
		},
		{
			"bufferView":30,
			"componentType":5126,
			"count":3,
			"type":"VEC2"
		},
		{
			"bufferView":31,
			"componentType":5126,
			"count":3,
			"max":[
				0.034108709543943405,
				-0.16381235420703888,
				0.23648355901241302
			],
			"min":[
				-0.008479513227939606,
				-0.20593148469924927,
				0.22508858144283295
			],
			"type":"VEC3"
		},
		{
			"bufferView":32,
			"componentType":5126,
			"count":3,
			"type":"VEC3"
		},
		{
			"bufferView":33,
			"componentType":5126,
			"count":3,
			"type":"VEC2"
		},
		{
			"bufferView":34,
			"componentType":5126,
			"count":3,
			"max":[
				0.0030679553747177124,
				-0.15884637832641602,
				0.23648355901241302
			],
			"min":[
				-0.039519406855106354,
				-0.2009730339050293,
				0.22508858144283295
			],
			"type":"VEC3"
		},
		{
			"bufferView":35,
			"componentType":5126,
			"count":3,
			"type":"VEC3"
		},
		{
			"bufferView":36,
			"componentType":5126,
			"count":3,
			"type":"VEC2"
		},
		{
			"bufferView":37,
			"componentType":5126,
			"count":3,
			"max":[
				-0.03204482048749924,
				-0.1671203225851059,
				0.23648357391357422
			],
			"min":[
				-0.07432858645915985,
				-0.21062499284744263,
				0.22508859634399414
			],
			"type":"VEC3"
		},
		{
			"bufferView":38,
			"componentType":5126,
			"count":3,
			"type":"VEC3"
		},
		{
			"bufferView":39,
			"componentType":5126,
			"count":3,
			"type":"VEC2"
		},
		{
			"bufferView":40,
			"componentType":5126,
			"count":3,
			"max":[
				-0.073066845536232,
				-0.16279876232147217,
				0.23648355901241302
			],
			"min":[
				-0.11516991257667542,
				-0.20674936473369598,
				0.22508856654167175
			],
			"type":"VEC3"
		},
		{
			"bufferView":41,
			"componentType":5126,
			"count":3,
			"type":"VEC3"
		},
		{
			"bufferView":42,
			"componentType":5126,
			"count":3,
			"type":"VEC2"
		},
		{
			"bufferView":43,
			"componentType":5126,
			"count":3,
			"max":[
				-0.11912082880735397,
				-0.17644275724887848,
				0.236483633518219
			],
			"min":[
				-0.1616603285074234,
				-0.21891997754573822,
				0.22508864104747772
			],
			"type":"VEC3"
		},
		{
			"bufferView":44,
			"componentType":5126,
			"count":3,
			"type":"VEC3"
		},
		{
			"bufferView":45,
			"componentType":5126,
			"count":3,
			"type":"VEC2"
		},
		{
			"bufferView":46,
			"componentType":5126,
			"count":3,
			"max":[
				0.06722977757453918,
				-0.16142801940441132,
				0.23648357391357422
			],
			"min":[
				0.02468000166118145,
				-0.20383940637111664,
				0.22508859634399414
			],
			"type":"VEC3"
		},
		{
			"bufferView":47,
			"componentType":5126,
			"count":3,
			"type":"VEC3"
		},
		{
			"bufferView":48,
			"componentType":5126,
			"count":3,
			"type":"VEC2"
		},
		{
			"bufferView":49,
			"componentType":5126,
			"count":3,
			"max":[
				0.09817543625831604,
				-0.16778866946697235,
				0.23648355901241302
			],
			"min":[
				0.05620492994785309,
				-0.21200750768184662,
				0.22508856654167175
			],
			"type":"VEC3"
		},
		{
			"bufferView":50,
			"componentType":5126,
			"count":3,
			"type":"VEC3"
		},
		{
			"bufferView":51,
			"componentType":5126,
			"count":3,
			"type":"VEC2"
		},
		{
			"bufferView":52,
			"componentType":5126,
			"count":3,
			"max":[
				0.13447529077529907,
				-0.17633387446403503,
				0.2364836186170578
			],
			"min":[
				0.0939009040594101,
				-0.22199860215187073,
				0.22508862614631653
			],
			"type":"VEC3"
		},
		{
			"bufferView":53,
			"componentType":5126,
			"count":3,
			"type":"VEC3"
		},
		{
			"bufferView":54,
			"componentType":5126,
			"count":3,
			"type":"VEC2"
		},
		{
			"bufferView":55,
			"componentType":5126,
			"count":380,
			"max":[
				0.2757923901081085,
				0.2954464256763458,
				0.2681712508201599
			],
			"min":[
				-0.2757923901081085,
				-0.6733049154281616,
				-0.3482264578342438
			],
			"type":"VEC3"
		},
		{
			"bufferView":56,
			"componentType":5126,
			"count":380,
			"type":"VEC3"
		},
		{
			"bufferView":57,
			"componentType":5126,
			"count":380,
			"type":"VEC2"
		},
		{
			"bufferView":58,
			"componentType":5123,
			"count":1548,
			"type":"SCALAR"
		},
		{
			"bufferView":59,
			"componentType":5126,
			"count":91,
			"max":[
				0.20719872415065765,
				0.11192195117473602,
				0.18586362898349762
			],
			"min":[
				-0.20719873905181885,
				-0.45460420846939087,
				-0.27876609563827515
			],
			"type":"VEC3"
		},
		{
			"bufferView":60,
			"componentType":5126,
			"count":91,
			"type":"VEC3"
		},
		{
			"bufferView":61,
			"componentType":5126,
			"count":91,
			"type":"VEC2"
		},
		{
			"bufferView":62,
			"componentType":5123,
			"count":396,
			"type":"SCALAR"
		}
	],
	"bufferViews":[
		{
			"buffer":0,
			"byteLength":36,
			"byteOffset":0,
			"target":34962
		},
		{
			"buffer":0,
			"byteLength":36,
			"byteOffset":36,
			"target":34962
		},
		{
			"buffer":0,
			"byteLength":24,
			"byteOffset":72,
			"target":34962
		},
		{
			"buffer":0,
			"byteLength":6,
			"byteOffset":96,
			"target":34963
		},
		{
			"buffer":0,
			"byteLength":36,
			"byteOffset":104,
			"target":34962
		},
		{
			"buffer":0,
			"byteLength":36,
			"byteOffset":140,
			"target":34962
		},
		{
			"buffer":0,
			"byteLength":24,
			"byteOffset":176,
			"target":34962
		},
		{
			"buffer":0,
			"byteLength":36,
			"byteOffset":200,
			"target":34962
		},
		{
			"buffer":0,
			"byteLength":36,
			"byteOffset":236,
			"target":34962
		},
		{
			"buffer":0,
			"byteLength":24,
			"byteOffset":272,
			"target":34962
		},
		{
			"buffer":0,
			"byteLength":36,
			"byteOffset":296,
			"target":34962
		},
		{
			"buffer":0,
			"byteLength":36,
			"byteOffset":332,
			"target":34962
		},
		{
			"buffer":0,
			"byteLength":24,
			"byteOffset":368,
			"target":34962
		},
		{
			"buffer":0,
			"byteLength":36,
			"byteOffset":392,
			"target":34962
		},
		{
			"buffer":0,
			"byteLength":36,
			"byteOffset":428,
			"target":34962
		},
		{
			"buffer":0,
			"byteLength":24,
			"byteOffset":464,
			"target":34962
		},
		{
			"buffer":0,
			"byteLength":36,
			"byteOffset":488,
			"target":34962
		},
		{
			"buffer":0,
			"byteLength":36,
			"byteOffset":524,
			"target":34962
		},
		{
			"buffer":0,
			"byteLength":24,
			"byteOffset":560,
			"target":34962
		},
		{
			"buffer":0,
			"byteLength":36,
			"byteOffset":584,
			"target":34962
		},
		{
			"buffer":0,
			"byteLength":36,
			"byteOffset":620,
			"target":34962
		},
		{
			"buffer":0,
			"byteLength":24,
			"byteOffset":656,
			"target":34962
		},
		{
			"buffer":0,
			"byteLength":36,
			"byteOffset":680,
			"target":34962
		},
		{
			"buffer":0,
			"byteLength":36,
			"byteOffset":716,
			"target":34962
		},
		{
			"buffer":0,
			"byteLength":24,
			"byteOffset":752,
			"target":34962
		},
		{
			"buffer":0,
			"byteLength":36,
			"byteOffset":776,
			"target":34962
		},
		{
			"buffer":0,
			"byteLength":36,
			"byteOffset":812,
			"target":34962
		},
		{
			"buffer":0,
			"byteLength":24,
			"byteOffset":848,
			"target":34962
		},
		{
			"buffer":0,
			"byteLength":36,
			"byteOffset":872,
			"target":34962
		},
		{
			"buffer":0,
			"byteLength":36,
			"byteOffset":908,
			"target":34962
		},
		{
			"buffer":0,
			"byteLength":24,
			"byteOffset":944,
			"target":34962
		},
		{
			"buffer":0,
			"byteLength":36,
			"byteOffset":968,
			"target":34962
		},
		{
			"buffer":0,
			"byteLength":36,
			"byteOffset":1004,
			"target":34962
		},
		{
			"buffer":0,
			"byteLength":24,
			"byteOffset":1040,
			"target":34962
		},
		{
			"buffer":0,
			"byteLength":36,
			"byteOffset":1064,
			"target":34962
		},
		{
			"buffer":0,
			"byteLength":36,
			"byteOffset":1100,
			"target":34962
		},
		{
			"buffer":0,
			"byteLength":24,
			"byteOffset":1136,
			"target":34962
		},
		{
			"buffer":0,
			"byteLength":36,
			"byteOffset":1160,
			"target":34962
		},
		{
			"buffer":0,
			"byteLength":36,
			"byteOffset":1196,
			"target":34962
		},
		{
			"buffer":0,
			"byteLength":24,
			"byteOffset":1232,
			"target":34962
		},
		{
			"buffer":0,
			"byteLength":36,
			"byteOffset":1256,
			"target":34962
		},
		{
			"buffer":0,
			"byteLength":36,
			"byteOffset":1292,
			"target":34962
		},
		{
			"buffer":0,
			"byteLength":24,
			"byteOffset":1328,
			"target":34962
		},
		{
			"buffer":0,
			"byteLength":36,
			"byteOffset":1352,
			"target":34962
		},
		{
			"buffer":0,
			"byteLength":36,
			"byteOffset":1388,
			"target":34962
		},
		{
			"buffer":0,
			"byteLength":24,
			"byteOffset":1424,
			"target":34962
		},
		{
			"buffer":0,
			"byteLength":36,
			"byteOffset":1448,
			"target":34962
		},
		{
			"buffer":0,
			"byteLength":36,
			"byteOffset":1484,
			"target":34962
		},
		{
			"buffer":0,
			"byteLength":24,
			"byteOffset":1520,
			"target":34962
		},
		{
			"buffer":0,
			"byteLength":36,
			"byteOffset":1544,
			"target":34962
		},
		{
			"buffer":0,
			"byteLength":36,
			"byteOffset":1580,
			"target":34962
		},
		{
			"buffer":0,
			"byteLength":24,
			"byteOffset":1616,
			"target":34962
		},
		{
			"buffer":0,
			"byteLength":36,
			"byteOffset":1640,
			"target":34962
		},
		{
			"buffer":0,
			"byteLength":36,
			"byteOffset":1676,
			"target":34962
		},
		{
			"buffer":0,
			"byteLength":24,
			"byteOffset":1712,
			"target":34962
		},
		{
			"buffer":0,
			"byteLength":4560,
			"byteOffset":1736,
			"target":34962
		},
		{
			"buffer":0,
			"byteLength":4560,
			"byteOffset":6296,
			"target":34962
		},
		{
			"buffer":0,
			"byteLength":3040,
			"byteOffset":10856,
			"target":34962
		},
		{
			"buffer":0,
			"byteLength":3096,
			"byteOffset":13896,
			"target":34963
		},
		{
			"buffer":0,
			"byteLength":1092,
			"byteOffset":16992,
			"target":34962
		},
		{
			"buffer":0,
			"byteLength":1092,
			"byteOffset":18084,
			"target":34962
		},
		{
			"buffer":0,
			"byteLength":728,
			"byteOffset":19176,
			"target":34962
		},
		{
			"buffer":0,
			"byteLength":792,
			"byteOffset":19904,
			"target":34963
		}
	],
	"buffers":[
		{
			"byteLength":20696,
			"uri":"data:application/octet-stream;base64,"
		}
	]
}
