{
	"asset":{
		"generator":"Khronos glTF Blender I/O v3.6.28",
		"version":"2.0"
	},
	"scene":1,
	"scenes":[
		{
			"name":"Scene"
		},
		{
			"extras":{
				"ats_settings":{
					"num_tiles":[
						15,
						9
					],
					"threads_error":0,
					"prev_engine":"BLENDER_RENDER",
					"prev_device":"",
					"prev_border":0,
					"prev_threads":2,
					"prev_choice":"64",
					"prev_res":[
						960,
						540
					],
					"prev_border_res":[
						0.0,
						0.0,
						1.0,
						1.0
					],
					"prev_actual_tile_size":[
						64,
						60
					],
					"first_run":0
				}
			},
			"name":"Scene.001",
			"nodes":[
				0
			]
		}
	],
	"nodes":[
		{
			"mesh":0,
			"name":"neoprene_target",
			"rotation":[
				0,
				-0.5707582831382751,
				0.8211181163787842,
				2.0764535690886987e-07
			]
		}
	],
	"materials":[
		{
			"doubleSided":true,
			"name":"flytrap_inside_sha.002",
			"pbrMetallicRoughness":{
				"baseColorFactor":[
					0.8000000715255737,
					0,
					0.1586567908525467,
					1
				],
				"metallicFactor":0,
				"roughnessFactor":0.5
			}
		},
		{
			"doubleSided":true,
			"name":"dongle_leaf_sha.001",
			"pbrMetallicRoughness":{
				"baseColorFactor":[
					0.15101952850818634,
					0.28551894426345825,
					0.8000000715255737,
					1
				],
				"metallicFactor":0,
				"roughnessFactor":0.5
			}
		}
	],
	"meshes":[
		{
			"name":"Cylinder.010",
			"primitives":[
				{
					"attributes":{
						"POSITION":0,
						"NORMAL":1,
						"TEXCOORD_0":2
					},
					"indices":3,
					"material":0
				},
				{
					"attributes":{
						"POSITION":4,
						"NORMAL":5,
						"TEXCOORD_0":6
					},
					"indices":7,
					"material":1
				}
			]
		}
	],
	"accessors":[
		{
			"bufferView":0,
			"componentType":5126,
			"count":190,
			"max":[
				0.28927165269851685,
				0.11561651527881622,
				0.2823345363140106
			],
			"min":[
				-0.28979793190956116,
				0.05859578773379326,
				-0.1003694236278534
			],
			"type":"VEC3"
		},
		{
			"bufferView":1,
			"componentType":5126,
			"count":190,
			"type":"VEC3"
		},
		{
			"bufferView":2,
			"componentType":5126,
			"count":190,
			"type":"VEC2"
		},
		{
			"bufferView":3,
			"componentType":5123,
			"count":294,
			"type":"SCALAR"
		},
		{
			"bufferView":4,
			"componentType":5126,
			"count":127,
			"max":[
				0.2895347476005554,
				0.10321643203496933,
				0.27385979890823364
			],
			"min":[
				-0.2895348072052002,
				-0.1285238116979599,
				-0.033553123474121094
			],
			"type":"VEC3"
		},
		{
			"bufferView":5,
			"componentType":5126,
			"count":127,
			"type":"VEC3"
		},
		{
			"bufferView":6,
			"componentType":5126,
			"count":127,
			"type":"VEC2"
		},
		{
			"bufferView":7,
			"componentType":5123,
			"count":294,
			"type":"SCALAR"
		}
	],
	"bufferViews":[
		{
			"buffer":0,
			"byteLength":2280,
			"byteOffset":0,
			"target":34962
		},
		{
			"buffer":0,
			"byteLength":2280,
			"byteOffset":2280,
			"target":34962
		},
		{
			"buffer":0,
			"byteLength":1520,
			"byteOffset":4560,
			"target":34962
		},
		{
			"buffer":0,
			"byteLength":588,
			"byteOffset":6080,
			"target":34963
		},
		{
			"buffer":0,
			"byteLength":1524,
			"byteOffset":6668,
			"target":34962
		},
		{
			"buffer":0,
			"byteLength":1524,
			"byteOffset":8192,
			"target":34962
		},
		{
			"buffer":0,
			"byteLength":1016,
			"byteOffset":9716,
			"target":34962
		},
		{
			"buffer":0,
			"byteLength":588,
			"byteOffset":10732,
			"target":34963
		}
	],
	"buffers":[
		{
			"byteLength":11320,
			"uri":"data:application/octet-stream;base64,"
		}
	]
}
