{
	"asset":{
		"generator":"Khronos glTF Blender I/O v3.6.28",
		"version":"2.0"
	},
	"scene":1,
	"scenes":[
		{
			"name":"Scene"
		},
		{
			"extras":{
				"ats_settings":{
					"num_tiles":[
						15,
						9
					],
					"threads_error":0,
					"prev_engine":"BLENDER_RENDER",
					"prev_device":"",
					"prev_border":0,
					"prev_threads":2,
					"prev_choice":"64",
					"prev_res":[
						960,
						540
					],
					"prev_border_res":[
						0.0,
						0.0,
						1.0,
						1.0
					],
					"prev_actual_tile_size":[
						64,
						60
					],
					"first_run":0
				}
			},
			"name":"Scene.001",
			"nodes":[
				0
			]
		}
	],
	"nodes":[
		{
			"mesh":0,
			"name":"psych_test_target"
		}
	],
	"materials":[
		{
			"doubleSided":true,
			"name":"Material.007",
			"pbrMetallicRoughness":{
				"baseColorFactor":[
					0.3534144461154938,
					0.3882446885108948,
					0.8000000715255737,
					1
				],
				"metallicFactor":0,
				"roughnessFactor":0.5
			}
		},
		{
			"doubleSided":true,
			"emissiveFactor":[
				0.32418460105749247,
				0.024237507627158816,
				0.18850256273135102
			],
			"name":"body.001",
			"pbrMetallicRoughness":{
				"baseColorFactor":[
					0.60151606798172,
					0.11360160261392593,
					1,
					1
				],
				"metallicFactor":0
			}
		}
	],
	"meshes":[
		{
			"name":"Torus.001",
			"primitives":[
				{
					"attributes":{
						"POSITION":0,
						"NORMAL":1,
						"TEXCOORD_0":2
					},
					"indices":3,
					"material":0
				},
				{
					"attributes":{
						"POSITION":4,
						"NORMAL":5,
						"TEXCOORD_0":6
					},
					"indices":7,
					"material":1
				}
			]
		}
	],
	"accessors":[
		{
			"bufferView":0,
			"componentType":5126,
			"count":156,
			"max":[
				0.2624214291572571,
				-0.002092413604259491,
				0.2624214291572571
			],
			"min":[
				-0.2624214291572571,
				-0.27313846349716187,
				-0.2624214291572571
			],
			"type":"VEC3"
		},
		{
			"bufferView":1,
			"componentType":5126,
			"count":156,
			"type":"VEC3"
		},
		{
			"bufferView":2,
			"componentType":5126,
			"count":156,
			"type":"VEC2"
		},
		{
			"bufferView":3,
			"componentType":5123,
			"count":720,
			"type":"SCALAR"
		},
		{
			"bufferView":4,
			"componentType":5126,
			"count":39,
			"max":[
				0.14590604603290558,
				-0.002092413604259491,
				0.14590606093406677
			],
			"min":[
				-0.14590607583522797,
				-0.14846104383468628,
				-0.14590604603290558
			],
			"type":"VEC3"
		},
		{
			"bufferView":5,
			"componentType":5126,
			"count":39,
			"type":"VEC3"
		},
		{
			"bufferView":6,
			"componentType":5126,
			"count":39,
			"type":"VEC2"
		},
		{
			"bufferView":7,
			"componentType":5123,
			"count":144,
			"type":"SCALAR"
		}
	],
	"bufferViews":[
		{
			"buffer":0,
			"byteLength":1872,
			"byteOffset":0,
			"target":34962
		},
		{
			"buffer":0,
			"byteLength":1872,
			"byteOffset":1872,
			"target":34962
		},
		{
			"buffer":0,
			"byteLength":1248,
			"byteOffset":3744,
			"target":34962
		},
		{
			"buffer":0,
			"byteLength":1440,
			"byteOffset":4992,
			"target":34963
		},
		{
			"buffer":0,
			"byteLength":468,
			"byteOffset":6432,
			"target":34962
		},
		{
			"buffer":0,
			"byteLength":468,
			"byteOffset":6900,
			"target":34962
		},
		{
			"buffer":0,
			"byteLength":312,
			"byteOffset":7368,
			"target":34962
		},
		{
			"buffer":0,
			"byteLength":288,
			"byteOffset":7680,
			"target":34963
		}
	],
	"buffers":[
		{
			"byteLength":7968,
			"uri":"data:application/octet-stream;base64,"
		}
	]
}
