{
	"asset":{
		"generator":"Khronos glTF Blender I/O v3.6.28",
		"version":"2.0"
	},
	"scene":1,
	"scenes":[
		{
			"name":"Scene"
		},
		{
			"extras":{
				"ats_settings":{
					"num_tiles":[
						15,
						9
					],
					"threads_error":0,
					"prev_engine":"BLENDER_RENDER",
					"prev_device":"",
					"prev_border":0,
					"prev_threads":2,
					"prev_choice":"64",
					"prev_res":[
						960,
						540
					],
					"prev_border_res":[
						0.0,
						0.0,
						1.0,
						1.0
					],
					"prev_actual_tile_size":[
						64,
						60
					],
					"first_run":0
				}
			},
			"name":"Scene.001",
			"nodes":[
				0
			]
		}
	],
	"nodes":[
		{
			"mesh":0,
			"name":"debossed_note"
		}
	],
	"materials":[
		{
			"doubleSided":true,
			"name":"Material.013",
			"pbrMetallicRoughness":{
				"baseColorFactor":[
					0.41584330797195435,
					0.8000000715255737,
					0.4503697454929352,
					1
				],
				"metallicFactor":0,
				"roughnessFactor":0.5
			}
		}
	],
	"meshes":[
		{
			"name":"Icosphere.021",
			"primitives":[
				{
					"attributes":{
						"POSITION":0,
						"NORMAL":1,
						"TEXCOORD_0":2
					},
					"indices":3,
					"material":0
				}
			]
		}
	],
	"accessors":[
		{
			"bufferView":0,
			"componentType":5126,
			"count":49,
			"max":[
				0.07672343403100967,
				0.22520898282527924,
				0.07408393919467926
			],
			"min":[
				-0.07107273489236832,
				-0.07858287543058395,
				-0.0735841691493988
			],
			"type":"VEC3"
		},
		{
			"bufferView":1,
			"componentType":5126,
			"count":49,
			"type":"VEC3"
		},
		{
			"bufferView":2,
			"componentType":5126,
			"count":49,
			"type":"VEC2"
		},
		{
			"bufferView":3,
			"componentType":5123,
			"count":153,
			"type":"SCALAR"
		}
	],
	"bufferViews":[
		{
			"buffer":0,
			"byteLength":588,
			"byteOffset":0,
			"target":34962
		},
		{
			"buffer":0,
			"byteLength":588,
			"byteOffset":588,
			"target":34962
		},
		{
			"buffer":0,
			"byteLength":392,
			"byteOffset":1176,
			"target":34962
		},
		{
			"buffer":0,
			"byteLength":306,
			"byteOffset":1568,
			"target":34963
		}
	],
	"buffers":[
		{
			"byteLength":1876,
			"uri":"data:application/octet-stream;base64,"
		}
	]
}
