{
	"asset":{
		"generator":"Khronos glTF Blender I/O v3.6.28",
		"version":"2.0"
	},
	"extensionsUsed":[
		"KHR_materials_transmission",
		"KHR_materials_ior"
	],
	"scene":1,
	"scenes":[
		{
			"name":"Scene"
		},
		{
			"extras":{
				"ats_settings":{
					"num_tiles":[
						15,
						9
					],
					"threads_error":0,
					"prev_engine":"BLENDER_RENDER",
					"prev_device":"",
					"prev_border":0,
					"prev_threads":2,
					"prev_choice":"64",
					"prev_res":[
						960,
						540
					],
					"prev_border_res":[
						0.0,
						0.0,
						1.0,
						1.0
					],
					"prev_actual_tile_size":[
						64,
						60
					],
					"first_run":0
				}
			},
			"name":"Scene.001",
			"nodes":[
				0
			]
		}
	],
	"nodes":[
		{
			"mesh":0,
			"name":"dongle_note"
		}
	],
	"materials":[
		{
			"doubleSided":true,
			"name":"fly_eyes_sha.001",
			"pbrMetallicRoughness":{
				"baseColorFactor":[
					0.8000000715255737,
					0.13498049974441528,
					0,
					1
				],
				"metallicFactor":0,
				"roughnessFactor":0.5
			}
		},
		{
			"doubleSided":true,
			"name":"fly_bod_sha.001",
			"pbrMetallicRoughness":{
				"baseColorFactor":[
					0,
					0.010758510790765285,
					0.1961725503206253,
					1
				],
				"metallicFactor":0,
				"roughnessFactor":0.5
			}
		},
		{
			"alphaMode":"BLEND",
			"doubleSided":true,
			"extensions":{
				"KHR_materials_transmission":{
					"transmissionFactor":0.5727273225784302
				},
				"KHR_materials_ior":{
					"ior":1.4500000476837158
				}
			},
			"name":"fly_wings_sha.001",
			"pbrMetallicRoughness":{
				"baseColorFactor":[
					0.1570083498954773,
					0.47828179597854614,
					0.8000000715255737,
					0.668181836605072
				],
				"metallicFactor":0,
				"roughnessFactor":0.5
			}
		}
	],
	"meshes":[
		{
			"name":"Icosphere.019",
			"primitives":[
				{
					"attributes":{
						"POSITION":0,
						"NORMAL":1,
						"TEXCOORD_0":2
					},
					"indices":3,
					"material":0
				},
				{
					"attributes":{
						"POSITION":4,
						"NORMAL":5,
						"TEXCOORD_0":6
					},
					"indices":7,
					"material":1
				},
				{
					"attributes":{
						"POSITION":8,
						"NORMAL":9,
						"TEXCOORD_0":10
					},
					"indices":11,
					"material":2
				}
			]
		}
	],
	"accessors":[
		{
			"bufferView":0,
			"componentType":5126,
			"count":24,
			"max":[
				0.05366729199886322,
				0.012942546978592873,
				0.057571880519390106
			],
			"min":[
				-0.05366729199886322,
				-0.043886858969926834,
				4.192175038042478e-05
			],
			"type":"VEC3"
		},
		{
			"bufferView":1,
			"componentType":5126,
			"count":24,
			"type":"VEC3"
		},
		{
			"bufferView":2,
			"componentType":5126,
			"count":24,
			"type":"VEC2"
		},
		{
			"bufferView":3,
			"componentType":5123,
			"count":24,
			"type":"SCALAR"
		},
		{
			"bufferView":4,
			"componentType":5126,
			"count":134,
			"max":[
				0.20097874104976654,
				0.3809952139854431,
				0.07905333489179611
			],
			"min":[
				-0.20097872614860535,
				-0.06456352025270462,
				-0.08364597707986832
			],
			"type":"VEC3"
		},
		{
			"bufferView":5,
			"componentType":5126,
			"count":134,
			"type":"VEC3"
		},
		{
			"bufferView":6,
			"componentType":5126,
			"count":134,
			"type":"VEC2"
		},
		{
			"bufferView":7,
			"componentType":5123,
			"count":162,
			"type":"SCALAR"
		},
		{
			"bufferView":8,
			"componentType":5126,
			"count":24,
			"max":[
				0.19923248887062073,
				0.3352925777435303,
				0.10115138441324234
			],
			"min":[
				-0.19926667213439941,
				0.008226854726672173,
				0.03459246829152107
			],
			"type":"VEC3"
		},
		{
			"bufferView":9,
			"componentType":5126,
			"count":24,
			"type":"VEC3"
		},
		{
			"bufferView":10,
			"componentType":5126,
			"count":24,
			"type":"VEC2"
		},
		{
			"bufferView":11,
			"componentType":5123,
			"count":30,
			"type":"SCALAR"
		}
	],
	"bufferViews":[
		{
			"buffer":0,
			"byteLength":288,
			"byteOffset":0,
			"target":34962
		},
		{
			"buffer":0,
			"byteLength":288,
			"byteOffset":288,
			"target":34962
		},
		{
			"buffer":0,
			"byteLength":192,
			"byteOffset":576,
			"target":34962
		},
		{
			"buffer":0,
			"byteLength":48,
			"byteOffset":768,
			"target":34963
		},
		{
			"buffer":0,
			"byteLength":1608,
			"byteOffset":816,
			"target":34962
		},
		{
			"buffer":0,
			"byteLength":1608,
			"byteOffset":2424,
			"target":34962
		},
		{
			"buffer":0,
			"byteLength":1072,
			"byteOffset":4032,
			"target":34962
		},
		{
			"buffer":0,
			"byteLength":324,
			"byteOffset":5104,
			"target":34963
		},
		{
			"buffer":0,
			"byteLength":288,
			"byteOffset":5428,
			"target":34962
		},
		{
			"buffer":0,
			"byteLength":288,
			"byteOffset":5716,
			"target":34962
		},
		{
			"buffer":0,
			"byteLength":192,
			"byteOffset":6004,
			"target":34962
		},
		{
			"buffer":0,
			"byteLength":60,
			"byteOffset":6196,
			"target":34963
		}
	],
	"buffers":[
		{
			"byteLength":6256,
			"uri":"data:application/octet-stream;base64,"
		}
	]
}
