{
	"asset":{
		"generator":"Khronos glTF Blender I/O v3.6.28",
		"version":"2.0"
	},
	"scene":1,
	"scenes":[
		{
			"name":"Scene"
		},
		{
			"extras":{
				"ats_settings":{
					"num_tiles":[
						15,
						9
					],
					"threads_error":0,
					"prev_engine":"BLENDER_RENDER",
					"prev_device":"",
					"prev_border":0,
					"prev_threads":2,
					"prev_choice":"64",
					"prev_res":[
						960,
						540
					],
					"prev_border_res":[
						0.0,
						0.0,
						1.0,
						1.0
					],
					"prev_actual_tile_size":[
						64,
						60
					],
					"first_run":0
				}
			},
			"name":"Scene.001",
			"nodes":[
				0
			]
		}
	],
	"nodes":[
		{
			"mesh":0,
			"name":"fruit_note"
		}
	],
	"materials":[
		{
			"doubleSided":true,
			"name":"CD_sha",
			"pbrMetallicRoughness":{
				"baseColorFactor":[
					0.800000011920929,
					0.800000011920929,
					0.800000011920929,
					1
				],
				"metallicFactor":0.531818151473999,
				"roughnessFactor":0
			}
		},
		{
			"doubleSided":true,
			"name":"CD_2_sha",
			"pbrMetallicRoughness":{
				"baseColorFactor":[
					0.7458019852638245,
					0.7458019852638245,
					0.7458019852638245,
					1
				],
				"metallicFactor":0,
				"roughnessFactor":0.5
			}
		}
	],
	"meshes":[
		{
			"name":"Torus.006",
			"primitives":[
				{
					"attributes":{
						"POSITION":0,
						"NORMAL":1,
						"TEXCOORD_0":2
					},
					"indices":3,
					"material":0
				},
				{
					"attributes":{
						"POSITION":4,
						"NORMAL":5,
						"TEXCOORD_0":6
					},
					"indices":7,
					"material":1
				}
			]
		}
	],
	"accessors":[
		{
			"bufferView":0,
			"componentType":5126,
			"count":373,
			"max":[
				0.1252363622188568,
				0.12470214813947678,
				-0.04514405131340027
			],
			"min":[
				-0.1252300888299942,
				-0.12470214068889618,
				-0.045567456632852554
			],
			"type":"VEC3"
		},
		{
			"bufferView":1,
			"componentType":5126,
			"count":373,
			"type":"VEC3"
		},
		{
			"bufferView":2,
			"componentType":5126,
			"count":373,
			"type":"VEC2"
		},
		{
			"bufferView":3,
			"componentType":5123,
			"count":1632,
			"type":"SCALAR"
		},
		{
			"bufferView":4,
			"componentType":5126,
			"count":175,
			"max":[
				0.03600222244858742,
				0.035848647356033325,
				-0.045355748385190964
			],
			"min":[
				-0.03600041940808296,
				-0.03584864363074303,
				-0.04535575583577156
			],
			"type":"VEC3"
		},
		{
			"bufferView":5,
			"componentType":5126,
			"count":175,
			"type":"VEC3"
		},
		{
			"bufferView":6,
			"componentType":5126,
			"count":175,
			"type":"VEC2"
		},
		{
			"bufferView":7,
			"componentType":5123,
			"count":816,
			"type":"SCALAR"
		}
	],
	"bufferViews":[
		{
			"buffer":0,
			"byteLength":4476,
			"byteOffset":0,
			"target":34962
		},
		{
			"buffer":0,
			"byteLength":4476,
			"byteOffset":4476,
			"target":34962
		},
		{
			"buffer":0,
			"byteLength":2984,
			"byteOffset":8952,
			"target":34962
		},
		{
			"buffer":0,
			"byteLength":3264,
			"byteOffset":11936,
			"target":34963
		},
		{
			"buffer":0,
			"byteLength":2100,
			"byteOffset":15200,
			"target":34962
		},
		{
			"buffer":0,
			"byteLength":2100,
			"byteOffset":17300,
			"target":34962
		},
		{
			"buffer":0,
			"byteLength":1400,
			"byteOffset":19400,
			"target":34962
		},
		{
			"buffer":0,
			"byteLength":1632,
			"byteOffset":20800,
			"target":34963
		}
	],
	"buffers":[
		{
			"byteLength":22432,
			"uri":"data:application/octet-stream;base64,"
		}
	]
}
