{
	"asset":{
		"generator":"Khronos glTF Blender I/O v3.6.28",
		"version":"2.0"
	},
	"scene":1,
	"scenes":[
		{
			"name":"Scene"
		},
		{
			"extras":{
				"ats_settings":{
					"num_tiles":[
						15,
						9
					],
					"threads_error":0,
					"prev_engine":"BLENDER_RENDER",
					"prev_device":"",
					"prev_border":0,
					"prev_threads":2,
					"prev_choice":"64",
					"prev_res":[
						960,
						540
					],
					"prev_border_res":[
						0.0,
						0.0,
						1.0,
						1.0
					],
					"prev_actual_tile_size":[
						64,
						60
					],
					"first_run":0
				}
			},
			"name":"Scene.001",
			"nodes":[
				2
			]
		}
	],
	"nodes":[
		{
			"mesh":0,
			"name":"Icosphere"
		},
		{
			"mesh":1,
			"name":"Plane.046"
		},
		{
			"children":[
				0,
				1
			],
			"mesh":2,
			"name":"liquid_note"
		}
	],
	"materials":[
		{
			"doubleSided":true,
			"name":"Material.010",
			"pbrMetallicRoughness":{
				"baseColorFactor":[
					0.8000000715255737,
					0.6817883253097534,
					0.45062023401260376,
					1
				],
				"metallicFactor":0,
				"roughnessFactor":0.5
			}
		},
		{
			"doubleSided":true,
			"name":"fish_sha",
			"pbrMetallicRoughness":{
				"baseColorFactor":[
					1,
					0.49215102195739746,
					0.07544782757759094,
					1
				],
				"metallicFactor":0,
				"roughnessFactor":0.5
			}
		}
	],
	"meshes":[
		{
			"name":"Icosphere.013",
			"primitives":[
				{
					"attributes":{
						"POSITION":0,
						"NORMAL":1,
						"TEXCOORD_0":2
					},
					"indices":3,
					"material":0
				}
			]
		},
		{
			"name":"Plane.063",
			"primitives":[
				{
					"attributes":{
						"POSITION":4,
						"NORMAL":5,
						"TEXCOORD_0":6
					},
					"indices":7,
					"material":1
				}
			]
		},
		{
			"name":"Cylinder.006",
			"primitives":[
				{
					"attributes":{
						"POSITION":8,
						"NORMAL":9,
						"TEXCOORD_0":10
					},
					"indices":11,
					"material":0
				}
			]
		}
	],
	"accessors":[
		{
			"bufferView":0,
			"componentType":5126,
			"count":37,
			"max":[
				0.0911986380815506,
				0.1297571063041687,
				0.07159022986888885
			],
			"min":[
				-0.11266805231571198,
				-0.06503207981586456,
				-0.03843959420919418
			],
			"type":"VEC3"
		},
		{
			"bufferView":1,
			"componentType":5126,
			"count":37,
			"type":"VEC3"
		},
		{
			"bufferView":2,
			"componentType":5126,
			"count":37,
			"type":"VEC2"
		},
		{
			"bufferView":3,
			"componentType":5123,
			"count":144,
			"type":"SCALAR"
		},
		{
			"bufferView":4,
			"componentType":5126,
			"count":134,
			"max":[
				0.1739056259393692,
				0.1981486976146698,
				0.03899357467889786
			],
			"min":[
				-0.16323958337306976,
				-0.12238095700740814,
				-0.05176861584186554
			],
			"type":"VEC3"
		},
		{
			"bufferView":5,
			"componentType":5126,
			"count":134,
			"type":"VEC3"
		},
		{
			"bufferView":6,
			"componentType":5126,
			"count":134,
			"type":"VEC2"
		},
		{
			"bufferView":7,
			"componentType":5123,
			"count":624,
			"type":"SCALAR"
		},
		{
			"bufferView":8,
			"componentType":5126,
			"count":82,
			"max":[
				0.10756492614746094,
				0.12208959460258484,
				0.03074098750948906
			],
			"min":[
				-0.10175915062427521,
				-0.08463789522647858,
				-0.08879867196083069
			],
			"type":"VEC3"
		},
		{
			"bufferView":9,
			"componentType":5126,
			"count":82,
			"type":"VEC3"
		},
		{
			"bufferView":10,
			"componentType":5126,
			"count":82,
			"type":"VEC2"
		},
		{
			"bufferView":11,
			"componentType":5123,
			"count":228,
			"type":"SCALAR"
		}
	],
	"bufferViews":[
		{
			"buffer":0,
			"byteLength":444,
			"byteOffset":0,
			"target":34962
		},
		{
			"buffer":0,
			"byteLength":444,
			"byteOffset":444,
			"target":34962
		},
		{
			"buffer":0,
			"byteLength":296,
			"byteOffset":888,
			"target":34962
		},
		{
			"buffer":0,
			"byteLength":288,
			"byteOffset":1184,
			"target":34963
		},
		{
			"buffer":0,
			"byteLength":1608,
			"byteOffset":1472,
			"target":34962
		},
		{
			"buffer":0,
			"byteLength":1608,
			"byteOffset":3080,
			"target":34962
		},
		{
			"buffer":0,
			"byteLength":1072,
			"byteOffset":4688,
			"target":34962
		},
		{
			"buffer":0,
			"byteLength":1248,
			"byteOffset":5760,
			"target":34963
		},
		{
			"buffer":0,
			"byteLength":984,
			"byteOffset":7008,
			"target":34962
		},
		{
			"buffer":0,
			"byteLength":984,
			"byteOffset":7992,
			"target":34962
		},
		{
			"buffer":0,
			"byteLength":656,
			"byteOffset":8976,
			"target":34962
		},
		{
			"buffer":0,
			"byteLength":456,
			"byteOffset":9632,
			"target":34963
		}
	],
	"buffers":[
		{
			"byteLength":10088,
			"uri":"data:application/octet-stream;base64,"
		}
	]
}
