{
	"asset":{
		"generator":"Khronos glTF Blender I/O v3.6.28",
		"version":"2.0"
	},
	"scene":1,
	"scenes":[
		{
			"name":"Scene"
		},
		{
			"extras":{
				"ats_settings":{
					"num_tiles":[
						15,
						9
					],
					"threads_error":0,
					"prev_engine":"BLENDER_RENDER",
					"prev_device":"",
					"prev_border":0,
					"prev_threads":2,
					"prev_choice":"64",
					"prev_res":[
						960,
						540
					],
					"prev_border_res":[
						0.0,
						0.0,
						1.0,
						1.0
					],
					"prev_actual_tile_size":[
						64,
						60
					],
					"first_run":0
				}
			},
			"name":"Scene.001",
			"nodes":[
				0
			]
		}
	],
	"nodes":[
		{
			"mesh":0,
			"name":"neoprene_note"
		}
	],
	"materials":[
		{
			"doubleSided":true,
			"name":"neoprene_note_sha",
			"pbrMetallicRoughness":{
				"baseColorFactor":[
					0.04336865246295929,
					0.8000000715255737,
					0.0672164037823677,
					1
				],
				"metallicFactor":0,
				"roughnessFactor":0.5
			}
		},
		{
			"doubleSided":true,
			"name":"Material.006",
			"pbrMetallicRoughness":{
				"baseColorFactor":[
					0.19459204375743866,
					0.0650162622332573,
					0.4892207384109497,
					1
				],
				"metallicFactor":0,
				"roughnessFactor":0.5
			}
		}
	],
	"meshes":[
		{
			"name":"Icosphere.003",
			"primitives":[
				{
					"attributes":{
						"POSITION":0,
						"NORMAL":1,
						"TEXCOORD_0":2
					},
					"indices":3,
					"material":0
				},
				{
					"attributes":{
						"POSITION":4,
						"NORMAL":5,
						"TEXCOORD_0":6
					},
					"indices":7,
					"material":1
				}
			]
		}
	],
	"accessors":[
		{
			"bufferView":0,
			"componentType":5126,
			"count":61,
			"max":[
				0.11363966017961502,
				0.050339072942733765,
				0.1184302568435669
			],
			"min":[
				-0.11363966017961502,
				-0.11948761343955994,
				-0.11843026429414749
			],
			"type":"VEC3"
		},
		{
			"bufferView":1,
			"componentType":5126,
			"count":61,
			"type":"VEC3"
		},
		{
			"bufferView":2,
			"componentType":5126,
			"count":61,
			"type":"VEC2"
		},
		{
			"bufferView":3,
			"componentType":5123,
			"count":228,
			"type":"SCALAR"
		},
		{
			"bufferView":4,
			"componentType":5126,
			"count":70,
			"max":[
				0.016863806173205376,
				0.10900790244340897,
				0.010761097073554993
			],
			"min":[
				-0.03589387238025665,
				0.02549601159989834,
				-0.01277507096529007
			],
			"type":"VEC3"
		},
		{
			"bufferView":5,
			"componentType":5126,
			"count":70,
			"type":"VEC3"
		},
		{
			"bufferView":6,
			"componentType":5126,
			"count":70,
			"type":"VEC2"
		},
		{
			"bufferView":7,
			"componentType":5123,
			"count":84,
			"type":"SCALAR"
		}
	],
	"bufferViews":[
		{
			"buffer":0,
			"byteLength":732,
			"byteOffset":0,
			"target":34962
		},
		{
			"buffer":0,
			"byteLength":732,
			"byteOffset":732,
			"target":34962
		},
		{
			"buffer":0,
			"byteLength":488,
			"byteOffset":1464,
			"target":34962
		},
		{
			"buffer":0,
			"byteLength":456,
			"byteOffset":1952,
			"target":34963
		},
		{
			"buffer":0,
			"byteLength":840,
			"byteOffset":2408,
			"target":34962
		},
		{
			"buffer":0,
			"byteLength":840,
			"byteOffset":3248,
			"target":34962
		},
		{
			"buffer":0,
			"byteLength":560,
			"byteOffset":4088,
			"target":34962
		},
		{
			"buffer":0,
			"byteLength":168,
			"byteOffset":4648,
			"target":34963
		}
	],
	"buffers":[
		{
			"byteLength":4816,
			"uri":"data:application/octet-stream;base64,"
		}
	]
}
