{
	"asset":{
		"generator":"Khronos glTF Blender I/O v3.6.28",
		"version":"2.0"
	},
	"extensionsUsed":[
		"KHR_materials_transmission",
		"KHR_materials_ior"
	],
	"scene":1,
	"scenes":[
		{
			"name":"Scene"
		},
		{
			"extras":{
				"ats_settings":{
					"num_tiles":[
						15,
						9
					],
					"threads_error":0,
					"prev_engine":"BLENDER_RENDER",
					"prev_device":"",
					"prev_border":0,
					"prev_threads":2,
					"prev_choice":"64",
					"prev_res":[
						960,
						540
					],
					"prev_border_res":[
						0.0,
						0.0,
						1.0,
						1.0
					],
					"prev_actual_tile_size":[
						64,
						60
					],
					"first_run":0
				}
			},
			"name":"Scene.001",
			"nodes":[
				0
			]
		}
	],
	"nodes":[
		{
			"mesh":0,
			"name":"neoprene_note"
		}
	],
	"materials":[
		{
			"doubleSided":true,
			"name":"fly_eyes_sha.001",
			"pbrMetallicRoughness":{
				"baseColorFactor":[
					0.8000000715255737,
					0.13498049974441528,
					0,
					1
				],
				"metallicFactor":0,
				"roughnessFactor":0.5
			}
		},
		{
			"doubleSided":true,
			"name":"fly_bod_sha.001",
			"pbrMetallicRoughness":{
				"baseColorFactor":[
					0,
					0.010758510790765285,
					0.1961725503206253,
					1
				],
				"metallicFactor":0,
				"roughnessFactor":0.5
			}
		},
		{
			"alphaMode":"BLEND",
			"doubleSided":true,
			"extensions":{
				"KHR_materials_transmission":{
					"transmissionFactor":0.5727273225784302
				},
				"KHR_materials_ior":{
					"ior":1.4500000476837158
				}
			},
			"name":"fly_wings_sha.001",
			"pbrMetallicRoughness":{
				"baseColorFactor":[
					0.1570083498954773,
					0.47828179597854614,
					0.8000000715255737,
					0.668181836605072
				],
				"metallicFactor":0,
				"roughnessFactor":0.5
			}
		}
	],
	"meshes":[
		{
			"name":"Icosphere.019",
			"primitives":[
				{
					"attributes":{
						"POSITION":0,
						"NORMAL":1,
						"TEXCOORD_0":2
					},
					"indices":3,
					"material":0
				},
				{
					"attributes":{
						"POSITION":4,
						"NORMAL":5,
						"TEXCOORD_0":6
					},
					"indices":7,
					"material":1
				},
				{
					"attributes":{
						"POSITION":8,
						"NORMAL":9,
						"TEXCOORD_0":10
					},
					"indices":11,
					"material":2
				}
			]
		}
	],
	"accessors":[
		{
			"bufferView":0,
			"componentType":5126,
			"count":172,
			"max":[
				0.06215931475162506,
				0.0194266214966774,
				0.06972038000822067
			],
			"min":[
				-0.06215931475162506,
				-0.04336201399564743,
				0.004126204177737236
			],
			"type":"VEC3"
		},
		{
			"bufferView":1,
			"componentType":5126,
			"count":172,
			"type":"VEC3"
		},
		{
			"bufferView":2,
			"componentType":5126,
			"count":172,
			"type":"VEC2"
		},
		{
			"bufferView":3,
			"componentType":5123,
			"count":180,
			"type":"SCALAR"
		},
		{
			"bufferView":4,
			"componentType":5126,
			"count":534,
			"max":[
				0.20381999015808105,
				0.3752969205379486,
				0.07484716176986694
			],
			"min":[
				-0.20381996035575867,
				-0.06456352025270462,
				-0.07484713941812515
			],
			"type":"VEC3"
		},
		{
			"bufferView":5,
			"componentType":5126,
			"count":534,
			"type":"VEC3"
		},
		{
			"bufferView":6,
			"componentType":5126,
			"count":534,
			"type":"VEC2"
		},
		{
			"bufferView":7,
			"componentType":5123,
			"count":840,
			"type":"SCALAR"
		},
		{
			"bufferView":8,
			"componentType":5126,
			"count":44,
			"max":[
				0.19926905632019043,
				0.3352925777435303,
				0.10115138441324234
			],
			"min":[
				-0.19926902651786804,
				0.0033197207376360893,
				0.03900432959198952
			],
			"type":"VEC3"
		},
		{
			"bufferView":9,
			"componentType":5126,
			"count":44,
			"type":"VEC3"
		},
		{
			"bufferView":10,
			"componentType":5126,
			"count":44,
			"type":"VEC2"
		},
		{
			"bufferView":11,
			"componentType":5123,
			"count":72,
			"type":"SCALAR"
		}
	],
	"bufferViews":[
		{
			"buffer":0,
			"byteLength":2064,
			"byteOffset":0,
			"target":34962
		},
		{
			"buffer":0,
			"byteLength":2064,
			"byteOffset":2064,
			"target":34962
		},
		{
			"buffer":0,
			"byteLength":1376,
			"byteOffset":4128,
			"target":34962
		},
		{
			"buffer":0,
			"byteLength":360,
			"byteOffset":5504,
			"target":34963
		},
		{
			"buffer":0,
			"byteLength":6408,
			"byteOffset":5864,
			"target":34962
		},
		{
			"buffer":0,
			"byteLength":6408,
			"byteOffset":12272,
			"target":34962
		},
		{
			"buffer":0,
			"byteLength":4272,
			"byteOffset":18680,
			"target":34962
		},
		{
			"buffer":0,
			"byteLength":1680,
			"byteOffset":22952,
			"target":34963
		},
		{
			"buffer":0,
			"byteLength":528,
			"byteOffset":24632,
			"target":34962
		},
		{
			"buffer":0,
			"byteLength":528,
			"byteOffset":25160,
			"target":34962
		},
		{
			"buffer":0,
			"byteLength":352,
			"byteOffset":25688,
			"target":34962
		},
		{
			"buffer":0,
			"byteLength":144,
			"byteOffset":26040,
			"target":34963
		}
	],
	"buffers":[
		{
			"byteLength":26184,
			"uri":"data:application/octet-stream;base64,"
		}
	]
}
