{
	"asset":{
		"generator":"Khronos glTF Blender I/O v3.6.28",
		"version":"2.0"
	},
	"scene":1,
	"scenes":[
		{
			"name":"Scene"
		},
		{
			"extras":{
				"ats_settings":{
					"num_tiles":[
						15,
						9
					],
					"threads_error":0,
					"prev_engine":"BLENDER_RENDER",
					"prev_device":"",
					"prev_border":0,
					"prev_threads":2,
					"prev_choice":"64",
					"prev_res":[
						960,
						540
					],
					"prev_border_res":[
						0.0,
						0.0,
						1.0,
						1.0
					],
					"prev_actual_tile_size":[
						64,
						60
					],
					"first_run":0
				}
			},
			"name":"Scene.001",
			"nodes":[
				0
			]
		}
	],
	"nodes":[
		{
			"extras":{
				"has_bump_map":true
			},
			"mesh":0,
			"name":"anvil_squisher"
		}
	],
	"materials":[
		{
			"doubleSided":true,
			"name":"disco_anvil",
			"pbrMetallicRoughness":{
				"baseColorFactor":[
					0.6541123986244202,
					0.6541123986244202,
					0.6541123986244202,
					1
				],
				"roughnessFactor":0.5
			}
		}
	],
	"meshes":[
		{
			"name":"Plane.002",
			"primitives":[
				{
					"attributes":{
						"POSITION":0,
						"NORMAL":1,
						"TEXCOORD_0":2,
						"TEXCOORD_1":3
					},
					"indices":4,
					"material":0
				}
			]
		}
	],
	"accessors":[
		{
			"bufferView":0,
			"componentType":5126,
			"count":4011,
			"max":[
				1.5127084255218506,
				1.1283857822418213,
				0.7792308926582336
			],
			"min":[
				-1.7170113325119019,
				0.001393113867379725,
				-0.7792308926582336
			],
			"type":"VEC3"
		},
		{
			"bufferView":1,
			"componentType":5126,
			"count":4011,
			"type":"VEC3"
		},
		{
			"bufferView":2,
			"componentType":5126,
			"count":4011,
			"type":"VEC2"
		},
		{
			"bufferView":3,
			"componentType":5126,
			"count":4011,
			"type":"VEC2"
		},
		{
			"bufferView":4,
			"componentType":5123,
			"count":21168,
			"type":"SCALAR"
		}
	],
	"bufferViews":[
		{
			"buffer":0,
			"byteLength":48132,
			"byteOffset":0,
			"target":34962
		},
		{
			"buffer":0,
			"byteLength":48132,
			"byteOffset":48132,
			"target":34962
		},
		{
			"buffer":0,
			"byteLength":32088,
			"byteOffset":96264,
			"target":34962
		},
		{
			"buffer":0,
			"byteLength":32088,
			"byteOffset":128352,
			"target":34962
		},
		{
			"buffer":0,
			"byteLength":42336,
			"byteOffset":160440,
			"target":34963
		}
	],
	"buffers":[
		{
			"byteLength":202776,
			"uri":"data:application/octet-stream;base64,"
		}
	]
}
