{
	"asset":{
		"generator":"Khronos glTF Blender I/O v3.6.28",
		"version":"2.0"
	},
	"scene":1,
	"scenes":[
		{
			"name":"Scene"
		},
		{
			"extras":{
				"ats_settings":{
					"num_tiles":[
						15,
						9
					],
					"threads_error":0,
					"prev_engine":"BLENDER_RENDER",
					"prev_device":"",
					"prev_border":0,
					"prev_threads":2,
					"prev_choice":"64",
					"prev_res":[
						960,
						540
					],
					"prev_border_res":[
						0.0,
						0.0,
						1.0,
						1.0
					],
					"prev_actual_tile_size":[
						64,
						60
					],
					"first_run":0
				}
			},
			"name":"Scene.001",
			"nodes":[
				8
			]
		}
	],
	"nodes":[
		{
			"mesh":0,
			"name":"debossed_target.001",
			"rotation":[
				0,
				0,
				0.021288715302944183,
				0.999773383140564
			],
			"translation":[
				-0.5248357653617859,
				-0.1139279156923294,
				-3.039773464202881
			]
		},
		{
			"mesh":1,
			"name":"debossed_target.002",
			"rotation":[
				0,
				0,
				-0.027921956032514572,
				0.9996101260185242
			],
			"translation":[
				0.8356886506080627,
				-0.10613088309764862,
				-3.2020397186279297
			]
		},
		{
			"mesh":2,
			"name":"debossed_target.003",
			"rotation":[
				0,
				0,
				-0.040134496986866,
				0.999194324016571
			],
			"translation":[
				2.1751205921173096,
				-0.14168086647987366,
				-2.8255600929260254
			]
		},
		{
			"mesh":3,
			"name":"debossed_target.004",
			"rotation":[
				0,
				0,
				0.03827735036611557,
				0.9992671608924866
			],
			"translation":[
				2.7422163486480713,
				-0.25115445256233215,
				-1.6765462160110474
			]
		},
		{
			"mesh":4,
			"name":"debossed_target.005"
		},
		{
			"mesh":5,
			"name":"debossed_target.006",
			"rotation":[
				0,
				0,
				0.036303095519542694,
				0.9993408918380737
			],
			"translation":[
				-1.9103246927261353,
				-0.10402408987283707,
				-2.7152469158172607
			]
		},
		{
			"mesh":6,
			"name":"debossed_target.007"
		},
		{
			"mesh":7,
			"name":"debossed_target.008",
			"rotation":[
				0,
				0,
				0.06558186560869217,
				0.9978471994400024
			],
			"translation":[
				-3.4206314086914062,
				-0.26600855588912964,
				-3.4616620540618896
			]
		},
		{
			"children":[
				0,
				1,
				2,
				3,
				4,
				5,
				6,
				7
			],
			"mesh":8,
			"name":"debossed_background"
		}
	],
	"materials":[
		{
			"doubleSided":true,
			"name":"Material.007",
			"pbrMetallicRoughness":{
				"baseColorFactor":[
					0.3534144461154938,
					0.3882446885108948,
					0.8000000715255737,
					1
				],
				"metallicFactor":0,
				"roughnessFactor":0.5
			}
		},
		{
			"doubleSided":true,
			"emissiveFactor":[
				0.32418460105749247,
				0.024237507627158816,
				0.18850256273135102
			],
			"name":"body.001",
			"pbrMetallicRoughness":{
				"baseColorFactor":[
					0.60151606798172,
					0.11360160261392593,
					1,
					1
				],
				"metallicFactor":0
			}
		},
		{
			"doubleSided":true,
			"name":"Material.014",
			"pbrMetallicRoughness":{
				"baseColorFactor":[
					0.3288170099258423,
					0.2954128682613373,
					0.8000000715255737,
					1
				],
				"metallicFactor":0,
				"roughnessFactor":0.5
			}
		}
	],
	"meshes":[
		{
			"name":"Torus.009",
			"primitives":[
				{
					"attributes":{
						"POSITION":0,
						"NORMAL":1,
						"TEXCOORD_0":2
					},
					"indices":3,
					"material":0
				},
				{
					"attributes":{
						"POSITION":4,
						"NORMAL":5,
						"TEXCOORD_0":6
					},
					"indices":7,
					"material":1
				}
			]
		},
		{
			"name":"Torus.010",
			"primitives":[
				{
					"attributes":{
						"POSITION":8,
						"NORMAL":9,
						"TEXCOORD_0":10
					},
					"indices":3,
					"material":0
				},
				{
					"attributes":{
						"POSITION":11,
						"NORMAL":12,
						"TEXCOORD_0":13
					},
					"indices":7,
					"material":1
				}
			]
		},
		{
			"name":"Torus.011",
			"primitives":[
				{
					"attributes":{
						"POSITION":14,
						"NORMAL":15,
						"TEXCOORD_0":16
					},
					"indices":3,
					"material":0
				},
				{
					"attributes":{
						"POSITION":17,
						"NORMAL":18,
						"TEXCOORD_0":19
					},
					"indices":7,
					"material":1
				}
			]
		},
		{
			"name":"Torus.012",
			"primitives":[
				{
					"attributes":{
						"POSITION":20,
						"NORMAL":21,
						"TEXCOORD_0":22
					},
					"indices":3,
					"material":0
				},
				{
					"attributes":{
						"POSITION":23,
						"NORMAL":24,
						"TEXCOORD_0":25
					},
					"indices":7,
					"material":1
				}
			]
		},
		{
			"name":"Torus.013",
			"primitives":[
				{
					"attributes":{
						"POSITION":26,
						"NORMAL":27,
						"TEXCOORD_0":28
					},
					"indices":3,
					"material":0
				},
				{
					"attributes":{
						"POSITION":29,
						"NORMAL":30,
						"TEXCOORD_0":31
					},
					"indices":7,
					"material":1
				}
			]
		},
		{
			"name":"Torus.014",
			"primitives":[
				{
					"attributes":{
						"POSITION":32,
						"NORMAL":33,
						"TEXCOORD_0":34
					},
					"indices":3,
					"material":0
				},
				{
					"attributes":{
						"POSITION":35,
						"NORMAL":36,
						"TEXCOORD_0":37
					},
					"indices":7,
					"material":1
				}
			]
		},
		{
			"name":"Torus.015",
			"primitives":[
				{
					"attributes":{
						"POSITION":38,
						"NORMAL":39,
						"TEXCOORD_0":40
					},
					"indices":3,
					"material":0
				},
				{
					"attributes":{
						"POSITION":41,
						"NORMAL":42,
						"TEXCOORD_0":43
					},
					"indices":7,
					"material":1
				}
			]
		},
		{
			"name":"Torus.016",
			"primitives":[
				{
					"attributes":{
						"POSITION":44,
						"NORMAL":45,
						"TEXCOORD_0":46
					},
					"indices":3,
					"material":0
				},
				{
					"attributes":{
						"POSITION":47,
						"NORMAL":48,
						"TEXCOORD_0":49
					},
					"indices":7,
					"material":1
				}
			]
		},
		{
			"name":"Plane.065",
			"primitives":[
				{
					"attributes":{
						"POSITION":50,
						"NORMAL":51,
						"TEXCOORD_0":52
					},
					"indices":53,
					"material":2
				}
			]
		}
	],
	"accessors":[
		{
			"bufferView":0,
			"componentType":5126,
			"count":156,
			"max":[
				0.412310928106308,
				0.19962695240974426,
				0.4123098850250244
			],
			"min":[
				-0.41231101751327515,
				-0.09141796827316284,
				-0.41231203079223633
			],
			"type":"VEC3"
		},
		{
			"bufferView":1,
			"componentType":5126,
			"count":156,
			"type":"VEC3"
		},
		{
			"bufferView":2,
			"componentType":5126,
			"count":156,
			"type":"VEC2"
		},
		{
			"bufferView":3,
			"componentType":5123,
			"count":720,
			"type":"SCALAR"
		},
		{
			"bufferView":4,
			"componentType":5126,
			"count":39,
			"max":[
				0.17900311946868896,
				0.19962695240974426,
				0.179002046585083
			],
			"min":[
				-0.1790032982826233,
				0.06559085845947266,
				-0.17900443077087402
			],
			"type":"VEC3"
		},
		{
			"bufferView":5,
			"componentType":5126,
			"count":39,
			"type":"VEC3"
		},
		{
			"bufferView":6,
			"componentType":5126,
			"count":39,
			"type":"VEC2"
		},
		{
			"bufferView":7,
			"componentType":5123,
			"count":144,
			"type":"SCALAR"
		},
		{
			"bufferView":8,
			"componentType":5126,
			"count":156,
			"max":[
				0.5431279540061951,
				0.26296448707580566,
				0.5431289672851562
			],
			"min":[
				-0.5431285500526428,
				-0.12042257189750671,
				-0.5431275367736816
			],
			"type":"VEC3"
		},
		{
			"bufferView":9,
			"componentType":5126,
			"count":156,
			"type":"VEC3"
		},
		{
			"bufferView":10,
			"componentType":5126,
			"count":156,
			"type":"VEC2"
		},
		{
			"bufferView":11,
			"componentType":5126,
			"count":39,
			"max":[
				0.23579663038253784,
				0.26296448707580566,
				0.23579764366149902
			],
			"min":[
				-0.23579734563827515,
				0.08640168607234955,
				-0.23579621315002441
			],
			"type":"VEC3"
		},
		{
			"bufferView":12,
			"componentType":5126,
			"count":39,
			"type":"VEC3"
		},
		{
			"bufferView":13,
			"componentType":5126,
			"count":39,
			"type":"VEC2"
		},
		{
			"bufferView":14,
			"componentType":5126,
			"count":156,
			"max":[
				0.7603182792663574,
				0.3681204915046692,
				0.7603181600570679
			],
			"min":[
				-0.760318398475647,
				-0.16857829689979553,
				-0.7603185176849365
			],
			"type":"VEC3"
		},
		{
			"bufferView":15,
			"componentType":5126,
			"count":156,
			"type":"VEC3"
		},
		{
			"bufferView":16,
			"componentType":5126,
			"count":156,
			"type":"VEC2"
		},
		{
			"bufferView":17,
			"componentType":5126,
			"count":39,
			"max":[
				0.3300893306732178,
				0.3681204915046692,
				0.33008909225463867
			],
			"min":[
				-0.3300893306732178,
				0.12095245718955994,
				-0.3300895690917969
			],
			"type":"VEC3"
		},
		{
			"bufferView":18,
			"componentType":5126,
			"count":39,
			"type":"VEC3"
		},
		{
			"bufferView":19,
			"componentType":5126,
			"count":39,
			"type":"VEC2"
		},
		{
			"bufferView":20,
			"componentType":5126,
			"count":156,
			"max":[
				0.31935858726501465,
				0.18012703955173492,
				0.331637978553772
			],
			"min":[
				-0.336597204208374,
				-0.1109347939491272,
				-0.3316373825073242
			],
			"type":"VEC3"
		},
		{
			"bufferView":21,
			"componentType":5126,
			"count":156,
			"type":"VEC3"
		},
		{
			"bufferView":22,
			"componentType":5126,
			"count":156,
			"type":"VEC2"
		},
		{
			"bufferView":23,
			"componentType":5126,
			"count":39,
			"max":[
				0.16617941856384277,
				0.18012703955173492,
				0.14397943019866943
			],
			"min":[
				-0.11860132217407227,
				0.04387673735618591,
				-0.14397895336151123
			],
			"type":"VEC3"
		},
		{
			"bufferView":24,
			"componentType":5126,
			"count":39,
			"type":"VEC3"
		},
		{
			"bufferView":25,
			"componentType":5126,
			"count":39,
			"type":"VEC2"
		},
		{
			"bufferView":26,
			"componentType":5126,
			"count":156,
			"max":[
				1.5070064067840576,
				-0.10731947422027588,
				-2.3684566020965576
			],
			"min":[
				0.9382467269897461,
				-0.3080594837665558,
				-2.937216281890869
			],
			"type":"VEC3"
		},
		{
			"bufferView":27,
			"componentType":5126,
			"count":156,
			"type":"VEC3"
		},
		{
			"bufferView":28,
			"componentType":5126,
			"count":156,
			"type":"VEC2"
		},
		{
			"bufferView":29,
			"componentType":5126,
			"count":39,
			"max":[
				1.3460890054702759,
				-0.10731947422027588,
				-2.529374122619629
			],
			"min":[
				1.0991641283035278,
				-0.1997670829296112,
				-2.776298999786377
			],
			"type":"VEC3"
		},
		{
			"bufferView":30,
			"componentType":5126,
			"count":39,
			"type":"VEC3"
		},
		{
			"bufferView":31,
			"componentType":5126,
			"count":39,
			"type":"VEC2"
		},
		{
			"bufferView":32,
			"componentType":5126,
			"count":156,
			"max":[
				0.8100125789642334,
				0.39218050241470337,
				0.8100128173828125
			],
			"min":[
				-0.8100112676620483,
				-0.1795962154865265,
				-0.8100109100341797
			],
			"type":"VEC3"
		},
		{
			"bufferView":33,
			"componentType":5126,
			"count":156,
			"type":"VEC3"
		},
		{
			"bufferView":34,
			"componentType":5126,
			"count":156,
			"type":"VEC2"
		},
		{
			"bufferView":35,
			"componentType":5126,
			"count":39,
			"max":[
				0.3516641855239868,
				0.39218050241470337,
				0.35166454315185547
			],
			"min":[
				-0.3516627550125122,
				0.12885788083076477,
				-0.35166239738464355
			],
			"type":"VEC3"
		},
		{
			"bufferView":36,
			"componentType":5126,
			"count":39,
			"type":"VEC3"
		},
		{
			"bufferView":37,
			"componentType":5126,
			"count":39,
			"type":"VEC2"
		},
		{
			"bufferView":38,
			"componentType":5126,
			"count":156,
			"max":[
				-0.6825422048568726,
				-0.09748854488134384,
				-1.9742573499679565
			],
			"min":[
				-1.265824556350708,
				-0.3033542037010193,
				-2.557539701461792
			],
			"type":"VEC3"
		},
		{
			"bufferView":39,
			"componentType":5126,
			"count":156,
			"type":"VEC3"
		},
		{
			"bufferView":40,
			"componentType":5126,
			"count":156,
			"type":"VEC2"
		},
		{
			"bufferView":41,
			"componentType":5126,
			"count":39,
			"max":[
				-0.8475685119628906,
				-0.09748854488134384,
				-2.1392836570739746
			],
			"min":[
				-1.10079824924469,
				-0.19229668378829956,
				-2.3925132751464844
			],
			"type":"VEC3"
		},
		{
			"bufferView":42,
			"componentType":5126,
			"count":39,
			"type":"VEC3"
		},
		{
			"bufferView":43,
			"componentType":5126,
			"count":39,
			"type":"VEC2"
		},
		{
			"bufferView":44,
			"componentType":5126,
			"count":156,
			"max":[
				0.37121856212615967,
				0.1797311007976532,
				0.37121784687042236
			],
			"min":[
				-0.3712172508239746,
				-0.08230671286582947,
				-0.37121784687042236
			],
			"type":"VEC3"
		},
		{
			"bufferView":45,
			"componentType":5126,
			"count":156,
			"type":"VEC3"
		},
		{
			"bufferView":46,
			"componentType":5126,
			"count":156,
			"type":"VEC2"
		},
		{
			"bufferView":47,
			"componentType":5126,
			"count":39,
			"max":[
				0.16116344928741455,
				0.1797311007976532,
				0.16116273403167725
			],
			"min":[
				-0.1611621379852295,
				0.059053778648376465,
				-0.16116273403167725
			],
			"type":"VEC3"
		},
		{
			"bufferView":48,
			"componentType":5126,
			"count":39,
			"type":"VEC3"
		},
		{
			"bufferView":49,
			"componentType":5126,
			"count":39,
			"type":"VEC2"
		},
		{
			"bufferView":50,
			"componentType":5126,
			"count":133,
			"max":[
				5.621325492858887,
				-0.03683418408036232,
				0.02397669106721878
			],
			"min":[
				-5.681422710418701,
				-0.5766178369522095,
				-3.911569595336914
			],
			"type":"VEC3"
		},
		{
			"bufferView":51,
			"componentType":5126,
			"count":133,
			"type":"VEC3"
		},
		{
			"bufferView":52,
			"componentType":5126,
			"count":133,
			"type":"VEC2"
		},
		{
			"bufferView":53,
			"componentType":5123,
			"count":648,
			"type":"SCALAR"
		}
	],
	"bufferViews":[
		{
			"buffer":0,
			"byteLength":1872,
			"byteOffset":0,
			"target":34962
		},
		{
			"buffer":0,
			"byteLength":1872,
			"byteOffset":1872,
			"target":34962
		},
		{
			"buffer":0,
			"byteLength":1248,
			"byteOffset":3744,
			"target":34962
		},
		{
			"buffer":0,
			"byteLength":1440,
			"byteOffset":4992,
			"target":34963
		},
		{
			"buffer":0,
			"byteLength":468,
			"byteOffset":6432,
			"target":34962
		},
		{
			"buffer":0,
			"byteLength":468,
			"byteOffset":6900,
			"target":34962
		},
		{
			"buffer":0,
			"byteLength":312,
			"byteOffset":7368,
			"target":34962
		},
		{
			"buffer":0,
			"byteLength":288,
			"byteOffset":7680,
			"target":34963
		},
		{
			"buffer":0,
			"byteLength":1872,
			"byteOffset":7968,
			"target":34962
		},
		{
			"buffer":0,
			"byteLength":1872,
			"byteOffset":9840,
			"target":34962
		},
		{
			"buffer":0,
			"byteLength":1248,
			"byteOffset":11712,
			"target":34962
		},
		{
			"buffer":0,
			"byteLength":468,
			"byteOffset":12960,
			"target":34962
		},
		{
			"buffer":0,
			"byteLength":468,
			"byteOffset":13428,
			"target":34962
		},
		{
			"buffer":0,
			"byteLength":312,
			"byteOffset":13896,
			"target":34962
		},
		{
			"buffer":0,
			"byteLength":1872,
			"byteOffset":14208,
			"target":34962
		},
		{
			"buffer":0,
			"byteLength":1872,
			"byteOffset":16080,
			"target":34962
		},
		{
			"buffer":0,
			"byteLength":1248,
			"byteOffset":17952,
			"target":34962
		},
		{
			"buffer":0,
			"byteLength":468,
			"byteOffset":19200,
			"target":34962
		},
		{
			"buffer":0,
			"byteLength":468,
			"byteOffset":19668,
			"target":34962
		},
		{
			"buffer":0,
			"byteLength":312,
			"byteOffset":20136,
			"target":34962
		},
		{
			"buffer":0,
			"byteLength":1872,
			"byteOffset":20448,
			"target":34962
		},
		{
			"buffer":0,
			"byteLength":1872,
			"byteOffset":22320,
			"target":34962
		},
		{
			"buffer":0,
			"byteLength":1248,
			"byteOffset":24192,
			"target":34962
		},
		{
			"buffer":0,
			"byteLength":468,
			"byteOffset":25440,
			"target":34962
		},
		{
			"buffer":0,
			"byteLength":468,
			"byteOffset":25908,
			"target":34962
		},
		{
			"buffer":0,
			"byteLength":312,
			"byteOffset":26376,
			"target":34962
		},
		{
			"buffer":0,
			"byteLength":1872,
			"byteOffset":26688,
			"target":34962
		},
		{
			"buffer":0,
			"byteLength":1872,
			"byteOffset":28560,
			"target":34962
		},
		{
			"buffer":0,
			"byteLength":1248,
			"byteOffset":30432,
			"target":34962
		},
		{
			"buffer":0,
			"byteLength":468,
			"byteOffset":31680,
			"target":34962
		},
		{
			"buffer":0,
			"byteLength":468,
			"byteOffset":32148,
			"target":34962
		},
		{
			"buffer":0,
			"byteLength":312,
			"byteOffset":32616,
			"target":34962
		},
		{
			"buffer":0,
			"byteLength":1872,
			"byteOffset":32928,
			"target":34962
		},
		{
			"buffer":0,
			"byteLength":1872,
			"byteOffset":34800,
			"target":34962
		},
		{
			"buffer":0,
			"byteLength":1248,
			"byteOffset":36672,
			"target":34962
		},
		{
			"buffer":0,
			"byteLength":468,
			"byteOffset":37920,
			"target":34962
		},
		{
			"buffer":0,
			"byteLength":468,
			"byteOffset":38388,
			"target":34962
		},
		{
			"buffer":0,
			"byteLength":312,
			"byteOffset":38856,
			"target":34962
		},
		{
			"buffer":0,
			"byteLength":1872,
			"byteOffset":39168,
			"target":34962
		},
		{
			"buffer":0,
			"byteLength":1872,
			"byteOffset":41040,
			"target":34962
		},
		{
			"buffer":0,
			"byteLength":1248,
			"byteOffset":42912,
			"target":34962
		},
		{
			"buffer":0,
			"byteLength":468,
			"byteOffset":44160,
			"target":34962
		},
		{
			"buffer":0,
			"byteLength":468,
			"byteOffset":44628,
			"target":34962
		},
		{
			"buffer":0,
			"byteLength":312,
			"byteOffset":45096,
			"target":34962
		},
		{
			"buffer":0,
			"byteLength":1872,
			"byteOffset":45408,
			"target":34962
		},
		{
			"buffer":0,
			"byteLength":1872,
			"byteOffset":47280,
			"target":34962
		},
		{
			"buffer":0,
			"byteLength":1248,
			"byteOffset":49152,
			"target":34962
		},
		{
			"buffer":0,
			"byteLength":468,
			"byteOffset":50400,
			"target":34962
		},
		{
			"buffer":0,
			"byteLength":468,
			"byteOffset":50868,
			"target":34962
		},
		{
			"buffer":0,
			"byteLength":312,
			"byteOffset":51336,
			"target":34962
		},
		{
			"buffer":0,
			"byteLength":1596,
			"byteOffset":51648,
			"target":34962
		},
		{
			"buffer":0,
			"byteLength":1596,
			"byteOffset":53244,
			"target":34962
		},
		{
			"buffer":0,
			"byteLength":1064,
			"byteOffset":54840,
			"target":34962
		},
		{
			"buffer":0,
			"byteLength":1296,
			"byteOffset":55904,
			"target":34963
		}
	],
	"buffers":[
		{
			"byteLength":57200,
			"uri":"data:application/octet-stream;base64,"
		}
	]
}
