{
	"asset":{
		"generator":"Khronos glTF Blender I/O v3.6.28",
		"version":"2.0"
	},
	"scene":1,
	"scenes":[
		{
			"name":"Scene"
		},
		{
			"extras":{
				"ats_settings":{
					"num_tiles":[
						15,
						9
					],
					"threads_error":0,
					"prev_engine":"BLENDER_RENDER",
					"prev_device":"",
					"prev_border":0,
					"prev_threads":2,
					"prev_choice":"64",
					"prev_res":[
						960,
						540
					],
					"prev_border_res":[
						0.0,
						0.0,
						1.0,
						1.0
					],
					"prev_actual_tile_size":[
						64,
						60
					],
					"first_run":0
				}
			},
			"name":"Scene.001",
			"nodes":[
				9
			]
		}
	],
	"nodes":[
		{
			"mesh":0,
			"name":"Cube.003",
			"scale":[
				0.051223404705524445,
				0.12076259404420853,
				0.051223404705524445
			],
			"translation":[
				-2.2167813777923584,
				-0.17068326473236084,
				-2.8357410430908203
			]
		},
		{
			"mesh":1,
			"name":"Cube.004",
			"scale":[
				0.03741047903895378,
				0.28621912002563477,
				0.01986386626958847
			],
			"translation":[
				2.334110736846924,
				-0.0794563740491867,
				-3.018047332763672
			]
		},
		{
			"mesh":2,
			"name":"Cube.005",
			"scale":[
				0.03741047903895378,
				0.28621912002563477,
				0.01986386626958847
			],
			"translation":[
				2.334110736846924,
				-0.0794563740491867,
				-3.66011905670166
			]
		},
		{
			"mesh":3,
			"name":"Cylinder.005",
			"scale":[
				0.8570444583892822,
				0.8570444583892822,
				0.8570444583892822
			],
			"translation":[
				-1.6536186933517456,
				0.8088254332542419,
				-3.361119031906128
			]
		},
		{
			"mesh":4,
			"name":"Cylinder.006",
			"scale":[
				0.30702731013298035,
				0.14911745488643646,
				0.30702731013298035
			],
			"translation":[
				1.586933970451355,
				1.568630337715149,
				-3.361119031906128
			]
		},
		{
			"mesh":5,
			"name":"Cylinder.007",
			"scale":[
				-0.08525693416595459,
				-0.5076217651367188,
				-0.08525693416595459
			],
			"translation":[
				-1.2932956218719482,
				2.174504518508911,
				-3.3576245307922363
			]
		},
		{
			"mesh":6,
			"name":"Cylinder.009",
			"scale":[
				0.2648569643497467,
				0.8181260228157043,
				0.2648569643497467
			],
			"translation":[
				1.586933970451355,
				2.4807512760162354,
				-3.361119031906128
			]
		},
		{
			"mesh":7,
			"name":"Cylinder.010"
		},
		{
			"mesh":8,
			"name":"Cylinder.011",
			"rotation":[
				0.7071068286895752,
				0,
				0,
				0.7071068286895752
			],
			"scale":[
				0.10806088149547577,
				0.29931771755218506,
				0.10806088149547577
			],
			"translation":[
				2.3285000324249268,
				0.1944853514432907,
				-3.3385324478149414
			]
		},
		{
			"children":[
				0,
				1,
				2,
				3,
				4,
				5,
				6,
				7,
				8
			],
			"mesh":9,
			"name":"grip_background"
		}
	],
	"materials":[
		{
			"doubleSided":true,
			"name":"Material.003",
			"pbrMetallicRoughness":{
				"baseColorFactor":[
					0.8000000715255737,
					0.5826511979103088,
					0,
					1
				],
				"metallicFactor":0,
				"roughnessFactor":0.5
			}
		},
		{
			"doubleSided":true,
			"name":"Material.003",
			"pbrMetallicRoughness":{
				"baseColorFactor":[
					0.8000000715255737,
					0.5826511979103088,
					0,
					1
				],
				"metallicFactor":0,
				"roughnessFactor":0.5
			}
		},
		{
			"doubleSided":true,
			"name":"Material.007",
			"pbrMetallicRoughness":{
				"baseColorFactor":[
					0.3534144461154938,
					0.3882446885108948,
					0.8000000715255737,
					1
				],
				"metallicFactor":0,
				"roughnessFactor":0.5
			}
		}
	],
	"meshes":[
		{
			"name":"Cube.016",
			"primitives":[
				{
					"attributes":{
						"POSITION":0,
						"NORMAL":1,
						"TEXCOORD_0":2
					},
					"indices":3,
					"material":0
				}
			]
		},
		{
			"name":"Cube.017",
			"primitives":[
				{
					"attributes":{
						"POSITION":4,
						"NORMAL":5,
						"TEXCOORD_0":6
					},
					"indices":7,
					"material":1
				}
			]
		},
		{
			"name":"Cube.018",
			"primitives":[
				{
					"attributes":{
						"POSITION":8,
						"NORMAL":9,
						"TEXCOORD_0":10
					},
					"indices":7,
					"material":1
				}
			]
		},
		{
			"name":"Cylinder.013",
			"primitives":[
				{
					"attributes":{
						"POSITION":11,
						"NORMAL":12,
						"TEXCOORD_0":13
					},
					"indices":14,
					"material":1
				}
			]
		},
		{
			"name":"Cylinder.014",
			"primitives":[
				{
					"attributes":{
						"POSITION":15,
						"NORMAL":16,
						"TEXCOORD_0":17
					},
					"indices":18,
					"material":2
				}
			]
		},
		{
			"name":"Cylinder.015",
			"primitives":[
				{
					"attributes":{
						"POSITION":19,
						"NORMAL":20,
						"TEXCOORD_0":21
					},
					"indices":22,
					"material":0
				}
			]
		},
		{
			"name":"Cylinder.017",
			"primitives":[
				{
					"attributes":{
						"POSITION":23,
						"NORMAL":24,
						"TEXCOORD_0":25
					},
					"indices":18,
					"material":1
				}
			]
		},
		{
			"name":"Cylinder.018",
			"primitives":[
				{
					"attributes":{
						"POSITION":26,
						"NORMAL":27,
						"TEXCOORD_0":28
					},
					"indices":29,
					"material":1
				}
			]
		},
		{
			"name":"Cylinder.019",
			"primitives":[
				{
					"attributes":{
						"POSITION":30,
						"NORMAL":31,
						"TEXCOORD_0":32
					},
					"indices":33,
					"material":2
				}
			]
		},
		{
			"name":"Plane.064",
			"primitives":[
				{
					"attributes":{
						"POSITION":34,
						"NORMAL":35,
						"TEXCOORD_0":36
					},
					"indices":37,
					"material":1
				}
			]
		}
	],
	"accessors":[
		{
			"bufferView":0,
			"componentType":5126,
			"count":96,
			"max":[
				22.988492965698242,
				1,
				1
			],
			"min":[
				-1,
				-1,
				-21.51318359375
			],
			"type":"VEC3"
		},
		{
			"bufferView":1,
			"componentType":5126,
			"count":96,
			"type":"VEC3"
		},
		{
			"bufferView":2,
			"componentType":5126,
			"count":96,
			"type":"VEC2"
		},
		{
			"bufferView":3,
			"componentType":5123,
			"count":144,
			"type":"SCALAR"
		},
		{
			"bufferView":4,
			"componentType":5126,
			"count":24,
			"max":[
				1,
				1,
				1
			],
			"min":[
				-1,
				-1,
				-1
			],
			"type":"VEC3"
		},
		{
			"bufferView":5,
			"componentType":5126,
			"count":24,
			"type":"VEC3"
		},
		{
			"bufferView":6,
			"componentType":5126,
			"count":24,
			"type":"VEC2"
		},
		{
			"bufferView":7,
			"componentType":5123,
			"count":36,
			"type":"SCALAR"
		},
		{
			"bufferView":8,
			"componentType":5126,
			"count":24,
			"max":[
				1,
				1,
				1
			],
			"min":[
				-1,
				-1,
				-1
			],
			"type":"VEC3"
		},
		{
			"bufferView":9,
			"componentType":5126,
			"count":24,
			"type":"VEC3"
		},
		{
			"bufferView":10,
			"componentType":5126,
			"count":24,
			"type":"VEC2"
		},
		{
			"bufferView":11,
			"componentType":5126,
			"count":106,
			"max":[
				0.997169017791748,
				1.0486615896224976,
				1.048485517501831
			],
			"min":[
				-0.9971689581871033,
				-1.0483094453811646,
				-1.048485517501831
			],
			"type":"VEC3"
		},
		{
			"bufferView":12,
			"componentType":5126,
			"count":106,
			"type":"VEC3"
		},
		{
			"bufferView":13,
			"componentType":5126,
			"count":106,
			"type":"VEC2"
		},
		{
			"bufferView":14,
			"componentType":5123,
			"count":468,
			"type":"SCALAR"
		},
		{
			"bufferView":15,
			"componentType":5126,
			"count":42,
			"max":[
				0.9510565400123596,
				1,
				1
			],
			"min":[
				-0.9510565400123596,
				-1,
				-1
			],
			"type":"VEC3"
		},
		{
			"bufferView":16,
			"componentType":5126,
			"count":42,
			"type":"VEC3"
		},
		{
			"bufferView":17,
			"componentType":5126,
			"count":42,
			"type":"VEC2"
		},
		{
			"bufferView":18,
			"componentType":5123,
			"count":108,
			"type":"SCALAR"
		},
		{
			"bufferView":19,
			"componentType":5126,
			"count":168,
			"max":[
				9.510564804077148,
				1,
				1
			],
			"min":[
				-0.9510565400123596,
				-3.6687991619110107,
				-1
			],
			"type":"VEC3"
		},
		{
			"bufferView":20,
			"componentType":5126,
			"count":168,
			"type":"VEC3"
		},
		{
			"bufferView":21,
			"componentType":5126,
			"count":168,
			"type":"VEC2"
		},
		{
			"bufferView":22,
			"componentType":5123,
			"count":432,
			"type":"SCALAR"
		},
		{
			"bufferView":23,
			"componentType":5126,
			"count":42,
			"max":[
				0.9510565400123596,
				1.9154000282287598,
				1
			],
			"min":[
				-0.9510565400123596,
				-1,
				-1
			],
			"type":"VEC3"
		},
		{
			"bufferView":24,
			"componentType":5126,
			"count":42,
			"type":"VEC3"
		},
		{
			"bufferView":25,
			"componentType":5126,
			"count":42,
			"type":"VEC2"
		},
		{
			"bufferView":26,
			"componentType":5126,
			"count":82,
			"max":[
				2.4494094848632812,
				0.3100566864013672,
				-3.0733814239501953
			],
			"min":[
				-0.9451146721839905,
				0.07393970340490341,
				-3.6069183349609375
			],
			"type":"VEC3"
		},
		{
			"bufferView":27,
			"componentType":5126,
			"count":82,
			"type":"VEC3"
		},
		{
			"bufferView":28,
			"componentType":5126,
			"count":82,
			"type":"VEC2"
		},
		{
			"bufferView":29,
			"componentType":5123,
			"count":228,
			"type":"SCALAR"
		},
		{
			"bufferView":30,
			"componentType":5126,
			"count":60,
			"max":[
				0.9510565400123596,
				1,
				1
			],
			"min":[
				-0.9510565400123596,
				-1,
				-1
			],
			"type":"VEC3"
		},
		{
			"bufferView":31,
			"componentType":5126,
			"count":60,
			"type":"VEC3"
		},
		{
			"bufferView":32,
			"componentType":5126,
			"count":60,
			"type":"VEC2"
		},
		{
			"bufferView":33,
			"componentType":5123,
			"count":108,
			"type":"SCALAR"
		},
		{
			"bufferView":34,
			"componentType":5126,
			"count":12,
			"max":[
				6.490063190460205,
				6.721257209777832,
				0.023976683616638184
			],
			"min":[
				-6.490063190460205,
				-0.2770528197288513,
				-6.22794246673584
			],
			"type":"VEC3"
		},
		{
			"bufferView":35,
			"componentType":5126,
			"count":12,
			"type":"VEC3"
		},
		{
			"bufferView":36,
			"componentType":5126,
			"count":12,
			"type":"VEC2"
		},
		{
			"bufferView":37,
			"componentType":5123,
			"count":30,
			"type":"SCALAR"
		}
	],
	"bufferViews":[
		{
			"buffer":0,
			"byteLength":1152,
			"byteOffset":0,
			"target":34962
		},
		{
			"buffer":0,
			"byteLength":1152,
			"byteOffset":1152,
			"target":34962
		},
		{
			"buffer":0,
			"byteLength":768,
			"byteOffset":2304,
			"target":34962
		},
		{
			"buffer":0,
			"byteLength":288,
			"byteOffset":3072,
			"target":34963
		},
		{
			"buffer":0,
			"byteLength":288,
			"byteOffset":3360,
			"target":34962
		},
		{
			"buffer":0,
			"byteLength":288,
			"byteOffset":3648,
			"target":34962
		},
		{
			"buffer":0,
			"byteLength":192,
			"byteOffset":3936,
			"target":34962
		},
		{
			"buffer":0,
			"byteLength":72,
			"byteOffset":4128,
			"target":34963
		},
		{
			"buffer":0,
			"byteLength":288,
			"byteOffset":4200,
			"target":34962
		},
		{
			"buffer":0,
			"byteLength":288,
			"byteOffset":4488,
			"target":34962
		},
		{
			"buffer":0,
			"byteLength":192,
			"byteOffset":4776,
			"target":34962
		},
		{
			"buffer":0,
			"byteLength":1272,
			"byteOffset":4968,
			"target":34962
		},
		{
			"buffer":0,
			"byteLength":1272,
			"byteOffset":6240,
			"target":34962
		},
		{
			"buffer":0,
			"byteLength":848,
			"byteOffset":7512,
			"target":34962
		},
		{
			"buffer":0,
			"byteLength":936,
			"byteOffset":8360,
			"target":34963
		},
		{
			"buffer":0,
			"byteLength":504,
			"byteOffset":9296,
			"target":34962
		},
		{
			"buffer":0,
			"byteLength":504,
			"byteOffset":9800,
			"target":34962
		},
		{
			"buffer":0,
			"byteLength":336,
			"byteOffset":10304,
			"target":34962
		},
		{
			"buffer":0,
			"byteLength":216,
			"byteOffset":10640,
			"target":34963
		},
		{
			"buffer":0,
			"byteLength":2016,
			"byteOffset":10856,
			"target":34962
		},
		{
			"buffer":0,
			"byteLength":2016,
			"byteOffset":12872,
			"target":34962
		},
		{
			"buffer":0,
			"byteLength":1344,
			"byteOffset":14888,
			"target":34962
		},
		{
			"buffer":0,
			"byteLength":864,
			"byteOffset":16232,
			"target":34963
		},
		{
			"buffer":0,
			"byteLength":504,
			"byteOffset":17096,
			"target":34962
		},
		{
			"buffer":0,
			"byteLength":504,
			"byteOffset":17600,
			"target":34962
		},
		{
			"buffer":0,
			"byteLength":336,
			"byteOffset":18104,
			"target":34962
		},
		{
			"buffer":0,
			"byteLength":984,
			"byteOffset":18440,
			"target":34962
		},
		{
			"buffer":0,
			"byteLength":984,
			"byteOffset":19424,
			"target":34962
		},
		{
			"buffer":0,
			"byteLength":656,
			"byteOffset":20408,
			"target":34962
		},
		{
			"buffer":0,
			"byteLength":456,
			"byteOffset":21064,
			"target":34963
		},
		{
			"buffer":0,
			"byteLength":720,
			"byteOffset":21520,
			"target":34962
		},
		{
			"buffer":0,
			"byteLength":720,
			"byteOffset":22240,
			"target":34962
		},
		{
			"buffer":0,
			"byteLength":480,
			"byteOffset":22960,
			"target":34962
		},
		{
			"buffer":0,
			"byteLength":216,
			"byteOffset":23440,
			"target":34963
		},
		{
			"buffer":0,
			"byteLength":144,
			"byteOffset":23656,
			"target":34962
		},
		{
			"buffer":0,
			"byteLength":144,
			"byteOffset":23800,
			"target":34962
		},
		{
			"buffer":0,
			"byteLength":96,
			"byteOffset":23944,
			"target":34962
		},
		{
			"buffer":0,
			"byteLength":60,
			"byteOffset":24040,
			"target":34963
		}
	],
	"buffers":[
		{
			"byteLength":24100,
			"uri":"data:application/octet-stream;base64,"
		}
	]
}
