{
	"asset":{
		"generator":"Khronos glTF Blender I/O v3.6.28",
		"version":"2.0"
	},
	"scene":1,
	"scenes":[
		{
			"name":"Scene"
		},
		{
			"extras":{
				"ats_settings":{
					"num_tiles":[
						15,
						9
					],
					"threads_error":0,
					"prev_engine":"BLENDER_RENDER",
					"prev_device":"",
					"prev_border":0,
					"prev_threads":2,
					"prev_choice":"64",
					"prev_res":[
						960,
						540
					],
					"prev_border_res":[
						0.0,
						0.0,
						1.0,
						1.0
					],
					"prev_actual_tile_size":[
						64,
						60
					],
					"first_run":0
				}
			},
			"name":"Scene.001",
			"nodes":[
				1
			]
		}
	],
	"nodes":[
		{
			"mesh":0,
			"name":"Plane.047",
			"rotation":[
				0.7071066498756409,
				0,
				0,
				0.7071069478988647
			],
			"scale":[
				0.2843569815158844,
				0.2843569815158844,
				0.2843569815158844
			],
			"translation":[
				-6.246824264526367,
				-0.13480421900749207,
				-1.1573243141174316
			]
		},
		{
			"children":[
				0
			],
			"mesh":1,
			"name":"liquid_background"
		}
	],
	"materials":[
		{
			"doubleSided":true,
			"name":"ocean_sha",
			"pbrMetallicRoughness":{
				"baseColorFactor":[
					0.18237927556037903,
					0.1609814316034317,
					0.22995787858963013,
					1
				],
				"metallicFactor":0
			}
		},
		{
			"doubleSided":true,
			"name":"ocean_sha",
			"pbrMetallicRoughness":{
				"baseColorFactor":[
					0.18237927556037903,
					0.1609814316034317,
					0.22995787858963013,
					1
				],
				"metallicFactor":0
			}
		}
	],
	"meshes":[
		{
			"name":"Plane.031",
			"primitives":[
				{
					"attributes":{
						"POSITION":0,
						"NORMAL":1,
						"TEXCOORD_0":2
					},
					"indices":3,
					"material":0
				}
			]
		},
		{
			"name":"Plane.040",
			"primitives":[
				{
					"attributes":{
						"POSITION":4,
						"NORMAL":5,
						"TEXCOORD_0":6
					},
					"indices":7,
					"material":1
				}
			]
		}
	],
	"accessors":[
		{
			"bufferView":0,
			"componentType":5126,
			"count":25000,
			"max":[
				44.75985336303711,
				-1.0868339117564574e-08,
				0.9186254143714905
			],
			"min":[
				-0.9972390532493591,
				-13.122800827026367,
				-1.7202820777893066
			],
			"type":"VEC3"
		},
		{
			"bufferView":1,
			"componentType":5126,
			"count":25000,
			"type":"VEC3"
		},
		{
			"bufferView":2,
			"componentType":5126,
			"count":25000,
			"type":"VEC2"
		},
		{
			"bufferView":3,
			"componentType":5123,
			"count":124800,
			"type":"SCALAR"
		},
		{
			"bufferView":4,
			"componentType":5126,
			"count":12,
			"max":[
				8.42823600769043,
				6.721257209777832,
				0.023976683616638184
			],
			"min":[
				-8.42823600769043,
				-0.2770528793334961,
				-7.284808158874512
			],
			"type":"VEC3"
		},
		{
			"bufferView":5,
			"componentType":5126,
			"count":12,
			"type":"VEC3"
		},
		{
			"bufferView":6,
			"componentType":5126,
			"count":12,
			"type":"VEC2"
		},
		{
			"bufferView":7,
			"componentType":5123,
			"count":30,
			"type":"SCALAR"
		}
	],
	"bufferViews":[
		{
			"buffer":0,
			"byteLength":300000,
			"byteOffset":0,
			"target":34962
		},
		{
			"buffer":0,
			"byteLength":300000,
			"byteOffset":300000,
			"target":34962
		},
		{
			"buffer":0,
			"byteLength":200000,
			"byteOffset":600000,
			"target":34962
		},
		{
			"buffer":0,
			"byteLength":249600,
			"byteOffset":800000,
			"target":34963
		},
		{
			"buffer":0,
			"byteLength":144,
			"byteOffset":1049600,
			"target":34962
		},
		{
			"buffer":0,
			"byteLength":144,
			"byteOffset":1049744,
			"target":34962
		},
		{
			"buffer":0,
			"byteLength":96,
			"byteOffset":1049888,
			"target":34962
		},
		{
			"buffer":0,
			"byteLength":60,
			"byteOffset":1049984,
			"target":34963
		}
	],
	"buffers":[
		{
			"byteLength":1050044,
			"uri":"data:application/octet-stream;base64,"
		}
	]
}
