{
	"asset":{
		"generator":"Khronos glTF Blender I/O v3.6.28",
		"version":"2.0"
	},
	"scene":1,
	"scenes":[
		{
			"name":"Scene"
		},
		{
			"extras":{
				"ats_settings":{
					"num_tiles":[
						15,
						9
					],
					"threads_error":0,
					"prev_engine":"BLENDER_RENDER",
					"prev_device":"",
					"prev_border":0,
					"prev_threads":2,
					"prev_choice":"64",
					"prev_res":[
						960,
						540
					],
					"prev_border_res":[
						0.0,
						0.0,
						1.0,
						1.0
					],
					"prev_actual_tile_size":[
						64,
						60
					],
					"first_run":0
				}
			},
			"name":"Scene.001",
			"nodes":[
				5
			]
		}
	],
	"nodes":[
		{
			"mesh":0,
			"name":"back wall",
			"rotation":[
				0.7009092569351196,
				0,
				0,
				0.713250458240509
			],
			"scale":[
				6.3890533447265625,
				3.3622703552246094,
				3.3622703552246094
			],
			"translation":[
				0,
				2.981654644012451,
				-12.33659839630127
			]
		},
		{
			"mesh":1,
			"name":"neoprene_note.003"
		},
		{
			"mesh":2,
			"name":"Cube",
			"scale":[
				1,
				2.260108709335327,
				1
			]
		},
		{
			"children":[
				2
			],
			"mesh":3,
			"name":"shelves",
			"scale":[
				1,
				0.44245660305023193,
				1
			]
		},
		{
			"mesh":4,
			"name":"side walls",
			"rotation":[
				0.5,
				0.5,
				-0.5,
				0.4999999701976776
			],
			"translation":[
				-5.967653274536133,
				-0.23294176161289215,
				-6.152707099914551
			]
		},
		{
			"children":[
				0,
				1,
				3,
				4
			],
			"mesh":5,
			"name":"neoprene_background"
		}
	],
	"materials":[
		{
			"doubleSided":true,
			"name":"Material.003",
			"pbrMetallicRoughness":{
				"baseColorFactor":[
					0.8000000715255737,
					0.5826511979103088,
					0,
					1
				],
				"metallicFactor":0,
				"roughnessFactor":0.5
			}
		},
		{
			"doubleSided":true,
			"name":"neoprene_note_sha",
			"pbrMetallicRoughness":{
				"baseColorFactor":[
					0.04336865246295929,
					0.8000000715255737,
					0.0672164037823677,
					1
				],
				"metallicFactor":0,
				"roughnessFactor":0.5
			}
		},
		{
			"doubleSided":true,
			"name":"Material.006",
			"pbrMetallicRoughness":{
				"baseColorFactor":[
					0.19459204375743866,
					0.0650162622332573,
					0.4892207384109497,
					1
				],
				"metallicFactor":0,
				"roughnessFactor":0.5
			}
		},
		{
			"doubleSided":true,
			"name":"shelves_sha",
			"pbrMetallicRoughness":{
				"baseColorFactor":[
					0.3352930545806885,
					0.05605738237500191,
					0,
					1
				],
				"metallicFactor":0,
				"roughnessFactor":0.5
			}
		},
		{
			"doubleSided":true,
			"name":"Material.003",
			"pbrMetallicRoughness":{
				"baseColorFactor":[
					0.8000000715255737,
					0.5826511979103088,
					0,
					1
				],
				"metallicFactor":0,
				"roughnessFactor":0.5
			}
		}
	],
	"meshes":[
		{
			"name":"Plane.081",
			"primitives":[
				{
					"attributes":{
						"POSITION":0,
						"NORMAL":1,
						"TEXCOORD_0":2
					},
					"indices":3,
					"material":0
				}
			]
		},
		{
			"name":"Icosphere.010",
			"primitives":[
				{
					"attributes":{
						"POSITION":4,
						"NORMAL":5,
						"TEXCOORD_0":6
					},
					"indices":7,
					"material":1
				},
				{
					"attributes":{
						"POSITION":8,
						"NORMAL":9,
						"TEXCOORD_0":10
					},
					"indices":11,
					"material":2
				}
			]
		},
		{
			"name":"Cube.015",
			"primitives":[
				{
					"attributes":{
						"POSITION":12,
						"NORMAL":13,
						"TEXCOORD_0":14
					},
					"indices":15,
					"material":3
				}
			]
		},
		{
			"name":"Cube.014",
			"primitives":[
				{
					"attributes":{
						"POSITION":16,
						"NORMAL":17,
						"TEXCOORD_0":18
					},
					"indices":19,
					"material":3
				}
			]
		},
		{
			"name":"Plane.080",
			"primitives":[
				{
					"attributes":{
						"POSITION":20,
						"NORMAL":21,
						"TEXCOORD_0":22
					},
					"indices":23,
					"material":4
				}
			]
		},
		{
			"name":"Plane.079",
			"primitives":[
				{
					"attributes":{
						"POSITION":24,
						"NORMAL":25,
						"TEXCOORD_0":26
					},
					"indices":3,
					"material":0
				}
			]
		}
	],
	"accessors":[
		{
			"bufferView":0,
			"componentType":5126,
			"count":4,
			"max":[
				1,
				0.0020958103705197573,
				1
			],
			"min":[
				-1,
				0,
				-1.1200690269470215
			],
			"type":"VEC3"
		},
		{
			"bufferView":1,
			"componentType":5126,
			"count":4,
			"type":"VEC3"
		},
		{
			"bufferView":2,
			"componentType":5126,
			"count":4,
			"type":"VEC2"
		},
		{
			"bufferView":3,
			"componentType":5123,
			"count":6,
			"type":"SCALAR"
		},
		{
			"bufferView":4,
			"componentType":5126,
			"count":13440,
			"max":[
				3.159792900085449,
				3.4388160705566406,
				-0.18757499754428864
			],
			"min":[
				-3.159792900085449,
				0.04650212824344635,
				-11.679622650146484
			],
			"type":"VEC3"
		},
		{
			"bufferView":5,
			"componentType":5126,
			"count":13440,
			"type":"VEC3"
		},
		{
			"bufferView":6,
			"componentType":5126,
			"count":13440,
			"type":"VEC2"
		},
		{
			"bufferView":7,
			"componentType":5123,
			"count":47520,
			"type":"SCALAR"
		},
		{
			"bufferView":8,
			"componentType":5126,
			"count":23040,
			"max":[
				3.061317205429077,
				3.520246744155884,
				-0.3384232223033905
			],
			"min":[
				-3.061317205429077,
				0.24980688095092773,
				-11.531410217285156
			],
			"type":"VEC3"
		},
		{
			"bufferView":9,
			"componentType":5126,
			"count":23040,
			"type":"VEC3"
		},
		{
			"bufferView":10,
			"componentType":5126,
			"count":23040,
			"type":"VEC2"
		},
		{
			"bufferView":11,
			"componentType":5123,
			"count":27360,
			"type":"SCALAR"
		},
		{
			"bufferView":12,
			"componentType":5126,
			"count":576,
			"max":[
				3.316859483718872,
				3.235948324203491,
				-0.03445185720920563
			],
			"min":[
				-3.316859483718872,
				-0.2742884159088135,
				-12.235542297363281
			],
			"type":"VEC3"
		},
		{
			"bufferView":13,
			"componentType":5126,
			"count":576,
			"type":"VEC3"
		},
		{
			"bufferView":14,
			"componentType":5126,
			"count":576,
			"type":"VEC2"
		},
		{
			"bufferView":15,
			"componentType":5123,
			"count":864,
			"type":"SCALAR"
		},
		{
			"bufferView":16,
			"componentType":5126,
			"count":224,
			"max":[
				3.2739317417144775,
				7.262887001037598,
				-0.03255128860473633
			],
			"min":[
				-3.2739317417144775,
				0.013757497072219849,
				-12.222051620483398
			],
			"type":"VEC3"
		},
		{
			"bufferView":17,
			"componentType":5126,
			"count":224,
			"type":"VEC3"
		},
		{
			"bufferView":18,
			"componentType":5126,
			"count":224,
			"type":"VEC2"
		},
		{
			"bufferView":19,
			"componentType":5123,
			"count":576,
			"type":"SCALAR"
		},
		{
			"bufferView":20,
			"componentType":5126,
			"count":8,
			"max":[
				6.217722415924072,
				12.197426795959473,
				0.01880032569169998
			],
			"min":[
				-6.217723369598389,
				-0.2621194124221802,
				-7.628232002258301
			],
			"type":"VEC3"
		},
		{
			"bufferView":21,
			"componentType":5126,
			"count":8,
			"type":"VEC3"
		},
		{
			"bufferView":22,
			"componentType":5126,
			"count":8,
			"type":"VEC2"
		},
		{
			"bufferView":23,
			"componentType":5123,
			"count":12,
			"type":"SCALAR"
		},
		{
			"bufferView":24,
			"componentType":5126,
			"count":4,
			"max":[
				6.217722415924072,
				-0.2621194124221802,
				0.01880032569169998
			],
			"min":[
				-6.217722415924072,
				-0.2621194124221802,
				-12.361608505249023
			],
			"type":"VEC3"
		},
		{
			"bufferView":25,
			"componentType":5126,
			"count":4,
			"type":"VEC3"
		},
		{
			"bufferView":26,
			"componentType":5126,
			"count":4,
			"type":"VEC2"
		}
	],
	"bufferViews":[
		{
			"buffer":0,
			"byteLength":48,
			"byteOffset":0,
			"target":34962
		},
		{
			"buffer":0,
			"byteLength":48,
			"byteOffset":48,
			"target":34962
		},
		{
			"buffer":0,
			"byteLength":32,
			"byteOffset":96,
			"target":34962
		},
		{
			"buffer":0,
			"byteLength":12,
			"byteOffset":128,
			"target":34963
		},
		{
			"buffer":0,
			"byteLength":161280,
			"byteOffset":140,
			"target":34962
		},
		{
			"buffer":0,
			"byteLength":161280,
			"byteOffset":161420,
			"target":34962
		},
		{
			"buffer":0,
			"byteLength":107520,
			"byteOffset":322700,
			"target":34962
		},
		{
			"buffer":0,
			"byteLength":95040,
			"byteOffset":430220,
			"target":34963
		},
		{
			"buffer":0,
			"byteLength":276480,
			"byteOffset":525260,
			"target":34962
		},
		{
			"buffer":0,
			"byteLength":276480,
			"byteOffset":801740,
			"target":34962
		},
		{
			"buffer":0,
			"byteLength":184320,
			"byteOffset":1078220,
			"target":34962
		},
		{
			"buffer":0,
			"byteLength":54720,
			"byteOffset":1262540,
			"target":34963
		},
		{
			"buffer":0,
			"byteLength":6912,
			"byteOffset":1317260,
			"target":34962
		},
		{
			"buffer":0,
			"byteLength":6912,
			"byteOffset":1324172,
			"target":34962
		},
		{
			"buffer":0,
			"byteLength":4608,
			"byteOffset":1331084,
			"target":34962
		},
		{
			"buffer":0,
			"byteLength":1728,
			"byteOffset":1335692,
			"target":34963
		},
		{
			"buffer":0,
			"byteLength":2688,
			"byteOffset":1337420,
			"target":34962
		},
		{
			"buffer":0,
			"byteLength":2688,
			"byteOffset":1340108,
			"target":34962
		},
		{
			"buffer":0,
			"byteLength":1792,
			"byteOffset":1342796,
			"target":34962
		},
		{
			"buffer":0,
			"byteLength":1152,
			"byteOffset":1344588,
			"target":34963
		},
		{
			"buffer":0,
			"byteLength":96,
			"byteOffset":1345740,
			"target":34962
		},
		{
			"buffer":0,
			"byteLength":96,
			"byteOffset":1345836,
			"target":34962
		},
		{
			"buffer":0,
			"byteLength":64,
			"byteOffset":1345932,
			"target":34962
		},
		{
			"buffer":0,
			"byteLength":24,
			"byteOffset":1345996,
			"target":34963
		},
		{
			"buffer":0,
			"byteLength":48,
			"byteOffset":1346020,
			"target":34962
		},
		{
			"buffer":0,
			"byteLength":48,
			"byteOffset":1346068,
			"target":34962
		},
		{
			"buffer":0,
			"byteLength":32,
			"byteOffset":1346116,
			"target":34962
		}
	],
	"buffers":[
		{
			"byteLength":1346148,
			"uri":"data:application/octet-stream;base64,"
		}
	]
}
