{
	"asset":{
		"generator":"Khronos glTF Blender I/O v3.6.28",
		"version":"2.0"
	},
	"scene":1,
	"scenes":[
		{
			"name":"Scene"
		},
		{
			"extras":{
				"ats_settings":{
					"num_tiles":[
						15,
						9
					],
					"threads_error":0,
					"prev_engine":"BLENDER_RENDER",
					"prev_device":"",
					"prev_border":0,
					"prev_threads":2,
					"prev_choice":"64",
					"prev_res":[
						960,
						540
					],
					"prev_border_res":[
						0.0,
						0.0,
						1.0,
						1.0
					],
					"prev_actual_tile_size":[
						64,
						60
					],
					"first_run":0
				}
			},
			"name":"Scene.001",
			"nodes":[
				8
			]
		}
	],
	"nodes":[
		{
			"mesh":0,
			"name":"Cone"
		},
		{
			"mesh":1,
			"name":"Cone.001"
		},
		{
			"mesh":2,
			"name":"Cone.002"
		},
		{
			"mesh":3,
			"name":"Cone.003"
		},
		{
			"mesh":4,
			"name":"Cone.004"
		},
		{
			"mesh":5,
			"name":"Cone.005"
		},
		{
			"mesh":6,
			"name":"Cone.006"
		},
		{
			"mesh":7,
			"name":"Cone.007"
		},
		{
			"children":[
				0,
				1,
				2,
				3,
				4,
				5,
				6,
				7
			],
			"mesh":8,
			"name":"radio_background"
		}
	],
	"materials":[
		{
			"doubleSided":true,
			"name":"radio_background_sha",
			"pbrMetallicRoughness":{
				"baseColorFactor":[
					0.5912610292434692,
					0.6613023281097412,
					0.8000000715255737,
					1
				],
				"metallicFactor":0.2772727310657501,
				"roughnessFactor":0.15000000596046448
			}
		}
	],
	"meshes":[
		{
			"name":"Cone",
			"primitives":[
				{
					"attributes":{
						"POSITION":0,
						"NORMAL":1,
						"TEXCOORD_0":2
					},
					"indices":3,
					"material":0
				}
			]
		},
		{
			"name":"Cone.005",
			"primitives":[
				{
					"attributes":{
						"POSITION":4,
						"NORMAL":5,
						"TEXCOORD_0":6
					},
					"indices":7,
					"material":0
				}
			]
		},
		{
			"name":"Cone.006",
			"primitives":[
				{
					"attributes":{
						"POSITION":8,
						"NORMAL":9,
						"TEXCOORD_0":10
					},
					"indices":11,
					"material":0
				}
			]
		},
		{
			"name":"Cone.009",
			"primitives":[
				{
					"attributes":{
						"POSITION":12,
						"NORMAL":13,
						"TEXCOORD_0":14
					},
					"indices":3,
					"material":0
				}
			]
		},
		{
			"name":"Cone.010",
			"primitives":[
				{
					"attributes":{
						"POSITION":15,
						"NORMAL":16,
						"TEXCOORD_0":17
					},
					"indices":7,
					"material":0
				}
			]
		},
		{
			"name":"Cone.011",
			"primitives":[
				{
					"attributes":{
						"POSITION":18,
						"NORMAL":19,
						"TEXCOORD_0":20
					},
					"indices":11,
					"material":0
				}
			]
		},
		{
			"name":"Cone.012",
			"primitives":[
				{
					"attributes":{
						"POSITION":21,
						"NORMAL":22,
						"TEXCOORD_0":23
					},
					"indices":7,
					"material":0
				}
			]
		},
		{
			"name":"Cone.013",
			"primitives":[
				{
					"attributes":{
						"POSITION":24,
						"NORMAL":25,
						"TEXCOORD_0":26
					},
					"indices":7,
					"material":0
				}
			]
		},
		{
			"name":"Plane.032",
			"primitives":[
				{
					"attributes":{
						"POSITION":27,
						"NORMAL":28,
						"TEXCOORD_0":29
					},
					"indices":30,
					"material":0
				}
			]
		}
	],
	"accessors":[
		{
			"bufferView":0,
			"componentType":5126,
			"count":20,
			"max":[
				-1.6379057168960571,
				1.9779976606369019,
				-2.023671865463257
			],
			"min":[
				-2.112657070159912,
				-0.34605535864830017,
				-2.475187301635742
			],
			"type":"VEC3"
		},
		{
			"bufferView":1,
			"componentType":5126,
			"count":20,
			"type":"VEC3"
		},
		{
			"bufferView":2,
			"componentType":5126,
			"count":20,
			"type":"VEC2"
		},
		{
			"bufferView":3,
			"componentType":5123,
			"count":24,
			"type":"SCALAR"
		},
		{
			"bufferView":4,
			"componentType":5126,
			"count":20,
			"max":[
				-0.36924511194229126,
				1.1635775566101074,
				-2.3871657848358154
			],
			"min":[
				-0.6749101877212524,
				-0.3460501730442047,
				-2.6904940605163574
			],
			"type":"VEC3"
		},
		{
			"bufferView":5,
			"componentType":5126,
			"count":20,
			"type":"VEC3"
		},
		{
			"bufferView":6,
			"componentType":5126,
			"count":20,
			"type":"VEC2"
		},
		{
			"bufferView":7,
			"componentType":5123,
			"count":24,
			"type":"SCALAR"
		},
		{
			"bufferView":8,
			"componentType":5126,
			"count":20,
			"max":[
				-0.872870922088623,
				0.49356985092163086,
				-1.6534112691879272
			],
			"min":[
				-1.0427441596984863,
				-0.34604594111442566,
				-1.8222850561141968
			],
			"type":"VEC3"
		},
		{
			"bufferView":9,
			"componentType":5126,
			"count":20,
			"type":"VEC3"
		},
		{
			"bufferView":10,
			"componentType":5126,
			"count":20,
			"type":"VEC2"
		},
		{
			"bufferView":11,
			"componentType":5123,
			"count":24,
			"type":"SCALAR"
		},
		{
			"bufferView":12,
			"componentType":5126,
			"count":20,
			"max":[
				-1.7489100694656372,
				1.2244982719421387,
				-1.0386275053024292
			],
			"min":[
				-2.069737672805786,
				-0.34605056047439575,
				-1.3437526226043701
			],
			"type":"VEC3"
		},
		{
			"bufferView":13,
			"componentType":5126,
			"count":20,
			"type":"VEC3"
		},
		{
			"bufferView":14,
			"componentType":5126,
			"count":20,
			"type":"VEC2"
		},
		{
			"bufferView":15,
			"componentType":5126,
			"count":20,
			"max":[
				2.2588064670562744,
				1.9779976606369019,
				-1.9623992443084717
			],
			"min":[
				1.8071893453598022,
				-0.34605535864830017,
				-2.437150478363037
			],
			"type":"VEC3"
		},
		{
			"bufferView":16,
			"componentType":5126,
			"count":20,
			"type":"VEC3"
		},
		{
			"bufferView":17,
			"componentType":5126,
			"count":20,
			"type":"VEC2"
		},
		{
			"bufferView":18,
			"componentType":5126,
			"count":20,
			"max":[
				1.2890675067901611,
				0.49356985092163086,
				-2.0713860988616943
			],
			"min":[
				1.1191943883895874,
				-0.34604594111442566,
				-2.240259885787964
			],
			"type":"VEC3"
		},
		{
			"bufferView":19,
			"componentType":5126,
			"count":20,
			"type":"VEC3"
		},
		{
			"bufferView":20,
			"componentType":5126,
			"count":20,
			"type":"VEC2"
		},
		{
			"bufferView":21,
			"componentType":5126,
			"count":20,
			"max":[
				2.268320083618164,
				1.1635775566101074,
				-1.0611767768859863
			],
			"min":[
				1.9626550674438477,
				-0.3460501730442047,
				-1.3645050525665283
			],
			"type":"VEC3"
		},
		{
			"bufferView":22,
			"componentType":5126,
			"count":20,
			"type":"VEC3"
		},
		{
			"bufferView":23,
			"componentType":5126,
			"count":20,
			"type":"VEC2"
		},
		{
			"bufferView":24,
			"componentType":5126,
			"count":20,
			"max":[
				0.9855698943138123,
				1.1635775566101074,
				-2.53129506111145
			],
			"min":[
				0.6799048185348511,
				-0.3460501730442047,
				-2.834623336791992
			],
			"type":"VEC3"
		},
		{
			"bufferView":25,
			"componentType":5126,
			"count":20,
			"type":"VEC3"
		},
		{
			"bufferView":26,
			"componentType":5126,
			"count":20,
			"type":"VEC2"
		},
		{
			"bufferView":27,
			"componentType":5126,
			"count":154,
			"max":[
				6.486113548278809,
				4.211920261383057,
				-0.008268594741821289
			],
			"min":[
				-6.486113548278809,
				-0.27107638120651245,
				-6.711756706237793
			],
			"type":"VEC3"
		},
		{
			"bufferView":28,
			"componentType":5126,
			"count":154,
			"type":"VEC3"
		},
		{
			"bufferView":29,
			"componentType":5126,
			"count":154,
			"type":"VEC2"
		},
		{
			"bufferView":30,
			"componentType":5123,
			"count":252,
			"type":"SCALAR"
		}
	],
	"bufferViews":[
		{
			"buffer":0,
			"byteLength":240,
			"byteOffset":0,
			"target":34962
		},
		{
			"buffer":0,
			"byteLength":240,
			"byteOffset":240,
			"target":34962
		},
		{
			"buffer":0,
			"byteLength":160,
			"byteOffset":480,
			"target":34962
		},
		{
			"buffer":0,
			"byteLength":48,
			"byteOffset":640,
			"target":34963
		},
		{
			"buffer":0,
			"byteLength":240,
			"byteOffset":688,
			"target":34962
		},
		{
			"buffer":0,
			"byteLength":240,
			"byteOffset":928,
			"target":34962
		},
		{
			"buffer":0,
			"byteLength":160,
			"byteOffset":1168,
			"target":34962
		},
		{
			"buffer":0,
			"byteLength":48,
			"byteOffset":1328,
			"target":34963
		},
		{
			"buffer":0,
			"byteLength":240,
			"byteOffset":1376,
			"target":34962
		},
		{
			"buffer":0,
			"byteLength":240,
			"byteOffset":1616,
			"target":34962
		},
		{
			"buffer":0,
			"byteLength":160,
			"byteOffset":1856,
			"target":34962
		},
		{
			"buffer":0,
			"byteLength":48,
			"byteOffset":2016,
			"target":34963
		},
		{
			"buffer":0,
			"byteLength":240,
			"byteOffset":2064,
			"target":34962
		},
		{
			"buffer":0,
			"byteLength":240,
			"byteOffset":2304,
			"target":34962
		},
		{
			"buffer":0,
			"byteLength":160,
			"byteOffset":2544,
			"target":34962
		},
		{
			"buffer":0,
			"byteLength":240,
			"byteOffset":2704,
			"target":34962
		},
		{
			"buffer":0,
			"byteLength":240,
			"byteOffset":2944,
			"target":34962
		},
		{
			"buffer":0,
			"byteLength":160,
			"byteOffset":3184,
			"target":34962
		},
		{
			"buffer":0,
			"byteLength":240,
			"byteOffset":3344,
			"target":34962
		},
		{
			"buffer":0,
			"byteLength":240,
			"byteOffset":3584,
			"target":34962
		},
		{
			"buffer":0,
			"byteLength":160,
			"byteOffset":3824,
			"target":34962
		},
		{
			"buffer":0,
			"byteLength":240,
			"byteOffset":3984,
			"target":34962
		},
		{
			"buffer":0,
			"byteLength":240,
			"byteOffset":4224,
			"target":34962
		},
		{
			"buffer":0,
			"byteLength":160,
			"byteOffset":4464,
			"target":34962
		},
		{
			"buffer":0,
			"byteLength":240,
			"byteOffset":4624,
			"target":34962
		},
		{
			"buffer":0,
			"byteLength":240,
			"byteOffset":4864,
			"target":34962
		},
		{
			"buffer":0,
			"byteLength":160,
			"byteOffset":5104,
			"target":34962
		},
		{
			"buffer":0,
			"byteLength":1848,
			"byteOffset":5264,
			"target":34962
		},
		{
			"buffer":0,
			"byteLength":1848,
			"byteOffset":7112,
			"target":34962
		},
		{
			"buffer":0,
			"byteLength":1232,
			"byteOffset":8960,
			"target":34962
		},
		{
			"buffer":0,
			"byteLength":504,
			"byteOffset":10192,
			"target":34963
		}
	],
	"buffers":[
		{
			"byteLength":10696,
			"uri":"data:application/octet-stream;base64,"
		}
	]
}
